<svg width="80" height="80" viewBox="0 0 80 80" fill="none" xmlns="http://www.w3.org/2000/svg">
<path d="M56.875 28.4706C56.875 37.567 49.3198 44.9412 40 44.9412M56.875 28.4706C56.875 19.3741 49.3198 12 40 12M56.875 28.4706H23.125M40 44.9412C30.6802 44.9412 23.125 37.567 23.125 28.4706M40 44.9412C43.7279 44.9412 46.75 37.567 46.75 28.4706C46.75 19.3741 43.7279 12 40 12M40 44.9412C36.2721 44.9412 33.25 37.567 33.25 28.4706C33.25 19.3741 36.2721 12 40 12M23.125 28.4706C23.125 19.3741 30.6802 12 40 12M46.75 61.4118C46.75 65.0503 43.7279 68 40 68C36.2721 68 33.25 65.0503 33.25 61.4118M46.75 61.4118C46.75 57.7732 43.7279 54.8235 40 54.8235C36.2721 54.8235 33.25 57.7732 33.25 61.4118M46.75 61.4118H67M33.25 61.4118H13" stroke="url(#paint0_linear_28_193)" stroke-width="3" stroke-linecap="round" stroke-linejoin="round"/>
<defs>
<linearGradient id="paint0_linear_28_193" x1="13" y1="40" x2="67" y2="40" gradientUnits="userSpaceOnUse">
<stop stop-color="#AD7F3F"/>
<stop offset="1" stop-color="#8A6B31"/>
</linearGradient>
</defs>
</svg>
