<svg width="81" height="80" viewBox="0 0 81 80" fill="none" xmlns="http://www.w3.org/2000/svg">
<path d="M40.569 22.5263L31.1022 42.2299C31.0417 42.3557 31.0103 42.4935 31.0103 42.6331V53.8058C31.0103 54.32 30.5935 54.7368 30.0793 54.7368H22.3828C21.8686 54.7368 21.4517 54.32 21.4517 53.8058V50.3623C21.4517 50.1293 21.3643 49.9047 21.2068 49.733L18.662 46.9586C18.293 46.5563 17.6587 46.5563 17.2897 46.9585L14.7449 49.733C14.5874 49.9047 14.5 50.1293 14.5 50.3623V67.069C14.5 67.5832 14.9168 68 15.431 68H40.569H67.569C68.0832 68 68.5 67.5832 68.5 67.069V50.3809C68.5 50.1368 68.4041 49.9024 68.233 49.7283L65.4399 46.8862C65.075 46.515 64.4767 46.515 64.1118 46.8862L61.3187 49.7283C61.1476 49.9024 61.0517 50.1368 61.0517 50.3809V53.8058C61.0517 54.32 60.6349 54.7368 60.1207 54.7368H51.7414C51.2272 54.7368 50.8103 54.32 50.8103 53.8058V42.6466C50.8103 42.4984 50.7749 42.3523 50.7071 42.2205L40.569 22.5263ZM40.569 22.5263V14" stroke="url(#paint0_linear_28_205)" stroke-width="3" stroke-linecap="round"/>
<defs>
<linearGradient id="paint0_linear_28_205" x1="14.5" y1="41" x2="68.5" y2="41" gradientUnits="userSpaceOnUse">
<stop stop-color="#AD7F3F"/>
<stop offset="1" stop-color="#8A6B31"/>
</linearGradient>
</defs>
</svg>
