<svg width="222" height="87" viewBox="0 0 222 87" fill="none" xmlns="http://www.w3.org/2000/svg">
<path d="M139.19 5.34C136.791 5.52361 134.385 5.58702 131.98 5.53H85.11C83.9034 5.55288 82.6967 5.48603 81.5 5.33C82.6965 5.17069 83.9031 5.1005 85.11 5.12H132C134.37 5.12 136.86 5.06 139.21 5.32L139.19 5.34Z" fill="#F6F7F8"/>
<path d="M83.16 34.4199C85.4185 34.2381 87.6848 34.1714 89.95 34.2199H134.12C135.254 34.2002 136.387 34.2704 137.51 34.4299C136.387 34.5812 135.253 34.6481 134.12 34.6299H90C87.7349 34.6817 85.4687 34.6183 83.21 34.4399L83.16 34.4199Z" fill="#F6F7F8"/>
<path d="M82.57 6.65012C84.8751 6.46665 87.1883 6.40323 89.5 6.46012H134.57C135.73 6.43726 136.89 6.50412 138.04 6.66012C136.89 6.81939 135.73 6.8896 134.57 6.87012H89.5C87.22 6.87012 84.83 6.93012 82.57 6.67012V6.65012Z" fill="#F6F7F8"/>
<path d="M137.63 8.12005C135.362 8.30353 133.085 8.36695 130.81 8.31005H86.52C85.3797 8.33818 84.2391 8.27128 83.11 8.11005C84.2391 7.94882 85.3797 7.88192 86.52 7.91005H130.81C133.085 7.86162 135.361 7.92837 137.63 8.11005V8.12005Z" fill="#F6F7F8"/>
<path d="M83.16 9.07995C85.4351 8.89696 87.7181 8.8302 90 8.87995H134.25C135.39 8.86018 136.531 8.9304 137.66 9.08995C136.53 9.24104 135.39 9.3079 134.25 9.28995H90C87.7283 9.34685 85.4551 9.28343 83.19 9.09995L83.16 9.07995Z" fill="#F6F7F8"/>
<path d="M108.27 4.00005C108.11 4.00005 108.11 3.90005 108.09 3.85005C108.081 3.79711 108.081 3.74299 108.09 3.69005C108.09 3.39005 108.09 3.06005 108.09 2.76005C108.09 2.46005 108.09 1.96005 108.09 1.67005C108.09 1.62005 108.09 1.56005 108.3 1.51005C108.51 1.46005 108.47 1.62005 108.5 1.67005C108.5 1.95005 108.5 2.46005 108.5 2.76005C108.5 3.06005 108.5 3.39005 108.5 3.69005C108.509 3.74299 108.509 3.79711 108.5 3.85005C108.5 3.85005 108.5 3.95005 108.33 4.00005H108.27Z" fill="#F6F7F8"/>
<path d="M112.42 4.00005C112.26 4.00005 112.26 3.90005 112.24 3.85005C112.231 3.79711 112.231 3.74299 112.24 3.69005C112.24 3.39005 112.24 3.06005 112.24 2.76005C112.24 2.46005 112.24 1.96005 112.24 1.67005C112.24 1.62005 112.24 1.56005 112.45 1.51005C112.66 1.46005 112.63 1.62005 112.65 1.67005V2.78005C112.65 3.08005 112.65 3.41005 112.65 3.71005C112.66 3.76295 112.66 3.81714 112.65 3.87005C112.65 3.87005 112.65 3.97005 112.47 4.02005L112.42 4.00005Z" fill="#F6F7F8"/>
<path d="M107 2.42C107.051 2.2507 107.156 2.10301 107.3 2C107.434 1.89753 107.574 1.804 107.72 1.72L110.33 0.07L110.44 0L110.55 0.07L112.24 1.16L113.08 1.71C113.226 1.78711 113.366 1.87397 113.5 1.97C113.63 2.09 113.79 2.15 113.81 2.42C113.56 2.5 113.44 2.42 113.28 2.31C113.136 2.22714 112.995 2.13702 112.86 2.04C112.31 1.67 110.86 0.79 110.33 0.42H110.55L108.81 1.5L107.93 2.04L107.49 2.3C107.332 2.39908 107.145 2.4414 106.96 2.42H107Z" fill="#F6F7F8"/>
<path d="M109 3.69007C108.63 3.44007 109.05 2.76007 109.29 2.53007C109.491 2.3298 109.741 2.1848 110.014 2.10909C110.288 2.03338 110.576 2.02953 110.852 2.0979C111.127 2.16627 111.38 2.30455 111.587 2.49938C111.793 2.6942 111.946 2.93899 112.03 3.21007C112.055 3.31531 112.055 3.42484 112.03 3.53007C112.016 3.56673 111.995 3.60002 111.968 3.62764C111.94 3.65526 111.907 3.67656 111.87 3.69007C111.799 3.67074 111.735 3.6286 111.69 3.57007C111.638 3.45865 111.601 3.341 111.58 3.22007C111.488 2.99079 111.329 2.79438 111.124 2.65607C110.919 2.51776 110.677 2.44386 110.43 2.44386C110.183 2.44386 109.941 2.51776 109.736 2.65607C109.531 2.79438 109.372 2.99079 109.28 3.22007C109.2 3.40007 109.19 3.58007 108.98 3.69007H109Z" fill="#F6F7F8"/>
<path d="M96.91 34.5199C96.7613 33.898 96.6974 33.2589 96.72 32.6199C96.89 32.2999 97.17 31.8299 97.36 31.5099V31.6099C97.36 25.8999 97.36 16.2799 97.36 10.6799C97.36 10.6957 97.3631 10.7113 97.3691 10.7258C97.3752 10.7404 97.384 10.7536 97.3952 10.7648C97.4063 10.7759 97.4195 10.7847 97.4341 10.7908C97.4486 10.7968 97.4643 10.7999 97.48 10.7999C97.3025 10.8057 97.1286 10.7492 96.9884 10.6402C96.8482 10.5312 96.7507 10.3765 96.7126 10.203C96.6746 10.0296 96.6985 9.84824 96.7803 9.69057C96.862 9.5329 96.9963 9.40883 97.16 9.3399C97.2886 9.2897 97.4314 9.2897 97.56 9.3399C97.4595 9.37462 97.3679 9.43119 97.2918 9.50554C97.2157 9.57989 97.157 9.67017 97.12 9.7699C97.03 10.1099 97.12 10.3799 97.51 10.3999C97.5799 10.4025 97.646 10.4321 97.6945 10.4824C97.743 10.5328 97.7701 10.6 97.77 10.6699C97.77 16.3099 97.84 26.0099 97.77 31.7199C97.59 32.0199 97.31 32.5199 97.12 32.8199V32.7299C97.1251 33.3644 97.0647 33.9977 96.94 34.6199L96.91 34.5199Z" fill="#F6F7F8"/>
<path d="M100.29 34.5201C100.17 33.8972 100.11 33.2644 100.11 32.6301V32.7201C99.93 32.4101 99.64 31.9401 99.46 31.6201C99.38 25.8701 99.46 16.2501 99.46 10.6201C99.4599 10.5502 99.487 10.483 99.5355 10.4326C99.584 10.3823 99.6501 10.3527 99.72 10.3501C100.11 10.3501 100.21 10.0601 100.11 9.72011C100.074 9.6214 100.017 9.53176 99.9426 9.45748C99.8683 9.3832 99.7787 9.32607 99.68 9.29011C99.8053 9.24054 99.9447 9.24054 100.07 9.29011C100.24 9.36889 100.375 9.50671 100.45 9.67785C100.526 9.84899 100.536 10.0417 100.48 10.2201C100.447 10.3402 100.382 10.4492 100.293 10.5354C100.203 10.6217 100.091 10.682 99.97 10.7101H99.75C99.7818 10.7101 99.8123 10.6975 99.8348 10.675C99.8574 10.6525 99.87 10.6219 99.87 10.5901C99.87 16.1501 99.87 25.8501 99.87 31.5201V31.4201C100.05 31.7201 100.33 32.2201 100.51 32.5301C100.538 33.1693 100.474 33.8091 100.32 34.4301L100.29 34.5201Z" fill="#F6F7F8"/>
<path d="M104.4 34.5199C104.251 33.898 104.187 33.2589 104.21 32.6199C104.38 32.2999 104.66 31.8299 104.85 31.5099V31.6099C104.85 25.8999 104.85 16.2799 104.85 10.6799C104.852 10.711 104.866 10.7402 104.888 10.7622C104.91 10.7842 104.939 10.7976 104.97 10.7999C104.793 10.8057 104.619 10.7492 104.478 10.6402C104.338 10.5312 104.241 10.3765 104.203 10.203C104.165 10.0296 104.189 9.84824 104.27 9.69057C104.352 9.5329 104.486 9.40883 104.65 9.3399C104.779 9.2897 104.921 9.2897 105.05 9.3399C104.949 9.37462 104.858 9.43119 104.782 9.50554C104.706 9.57989 104.647 9.67017 104.61 9.7699C104.52 10.1099 104.61 10.3799 105 10.3999C105.07 10.4046 105.136 10.4345 105.186 10.4842C105.235 10.5338 105.265 10.5998 105.27 10.6699C105.27 16.3099 105.33 26.0099 105.27 31.7199C105.09 32.0199 104.81 32.5199 104.62 32.8199V32.7299C104.625 33.3644 104.565 33.9977 104.44 34.6199L104.4 34.5199Z" fill="#F6F7F8"/>
<path d="M107.79 34.5201C107.662 33.8983 107.598 33.265 107.6 32.6301V32.7201C107.42 32.4101 107.13 31.9401 106.95 31.6201C106.87 25.8701 106.95 16.2501 106.95 10.6201C106.95 10.5502 106.977 10.483 107.026 10.4326C107.074 10.3823 107.14 10.3527 107.21 10.3501C107.6 10.3501 107.7 10.0601 107.6 9.72011C107.564 9.6214 107.507 9.53176 107.433 9.45748C107.358 9.3832 107.269 9.32607 107.17 9.29011C107.295 9.24054 107.435 9.24054 107.56 9.29011C107.73 9.36889 107.865 9.50671 107.94 9.67785C108.016 9.84899 108.026 10.0417 107.97 10.2201C107.937 10.3402 107.872 10.4492 107.783 10.5354C107.693 10.6217 107.581 10.682 107.46 10.7101H107.24C107.272 10.7101 107.302 10.6975 107.325 10.675C107.347 10.6525 107.36 10.6219 107.36 10.5901C107.36 16.1501 107.36 25.8501 107.36 31.5201V31.4201C107.54 31.7201 107.82 32.2201 108 32.5301C108.026 33.1687 107.965 33.8078 107.82 34.4301L107.79 34.5201Z" fill="#F6F7F8"/>
<path d="M115.3 34.5201C115.172 33.8983 115.108 33.265 115.11 32.6301V32.7201C114.92 32.4101 114.63 31.9401 114.45 31.6201C114.37 25.8701 114.45 16.2501 114.45 10.6201C114.45 10.5502 114.477 10.483 114.526 10.4326C114.574 10.3823 114.64 10.3527 114.71 10.3501C115.1 10.3501 115.2 10.0601 115.1 9.72011C115.064 9.6214 115.007 9.53176 114.933 9.45748C114.858 9.3832 114.769 9.32607 114.67 9.29011C114.795 9.24054 114.935 9.24054 115.06 9.29011C115.23 9.36889 115.365 9.50671 115.44 9.67785C115.516 9.84899 115.526 10.0417 115.47 10.2201C115.437 10.3402 115.372 10.4492 115.283 10.5354C115.193 10.6217 115.081 10.682 114.96 10.7101H114.74C114.772 10.7101 114.802 10.6975 114.825 10.675C114.847 10.6525 114.86 10.6219 114.86 10.5901C114.86 16.1501 114.86 25.8501 114.86 31.5201V31.4201C115.04 31.7201 115.32 32.2201 115.5 32.5301C115.526 33.1687 115.465 33.8078 115.32 34.4301L115.3 34.5201Z" fill="#F6F7F8"/>
<path d="M111.91 34.5199C111.761 33.898 111.697 33.2589 111.72 32.6199C111.89 32.2999 112.17 31.8299 112.36 31.5099V31.6099C112.36 25.8999 112.36 16.2799 112.36 10.6799C112.362 10.711 112.376 10.7402 112.398 10.7622C112.42 10.7842 112.449 10.7976 112.48 10.7999C112.318 10.7981 112.161 10.7461 112.031 10.6511C111.9 10.5562 111.802 10.423 111.75 10.2699C111.694 10.0915 111.704 9.89878 111.78 9.72764C111.855 9.55651 111.99 9.41868 112.16 9.3399C112.289 9.2897 112.431 9.2897 112.56 9.3399C112.459 9.37462 112.368 9.43119 112.292 9.50554C112.216 9.57989 112.157 9.67017 112.12 9.7699C112.03 10.1099 112.12 10.3799 112.51 10.3999C112.58 10.4046 112.646 10.4345 112.696 10.4842C112.745 10.5338 112.775 10.5998 112.78 10.6699C112.78 16.3099 112.84 26.0099 112.78 31.7199C112.6 32.0199 112.31 32.5199 112.12 32.8199V32.7299C112.125 33.3644 112.065 33.9977 111.94 34.6199L111.91 34.5199Z" fill="#F6F7F8"/>
<path d="M122.92 34.4201C122.805 33.8302 122.745 33.231 122.74 32.6301V32.7201L122.09 31.6201C122 25.8701 122.09 16.2501 122.09 10.6201C122.09 10.5502 122.117 10.483 122.166 10.4326C122.214 10.3823 122.28 10.3527 122.35 10.3501C122.74 10.3501 122.83 10.0501 122.74 9.72009C122.703 9.62037 122.644 9.53008 122.568 9.45573C122.492 9.38138 122.401 9.32481 122.3 9.29009C122.429 9.23989 122.571 9.23989 122.7 9.29009C122.87 9.36887 123.005 9.5067 123.08 9.67784C123.156 9.84898 123.166 10.0417 123.11 10.2201C123.076 10.3397 123.011 10.4481 122.921 10.5342C122.832 10.6204 122.721 10.6811 122.6 10.7101H122.38C122.45 10.7101 122.51 10.6301 122.5 10.5901C122.5 16.1801 122.5 25.8401 122.5 31.5201V31.4201L123.14 32.5301C123.157 33.1359 123.093 33.7412 122.95 34.3301L122.92 34.4201Z" fill="#F6F7F8"/>
<path d="M119.54 34.5199C119.401 33.8964 119.337 33.2586 119.35 32.6199C119.52 32.2999 119.8 31.8299 119.98 31.5099V31.6099C119.98 25.8999 119.98 16.2799 119.98 10.6799C119.98 10.7117 119.993 10.7423 120.015 10.7648C120.038 10.7873 120.068 10.7999 120.1 10.7999C119.923 10.8058 119.749 10.7493 119.608 10.6402C119.468 10.5312 119.371 10.3765 119.333 10.203C119.295 10.0296 119.319 9.84825 119.4 9.69058C119.482 9.53291 119.616 9.40884 119.78 9.33991C119.905 9.29034 120.045 9.29034 120.17 9.33991C120.071 9.37588 119.982 9.433 119.907 9.50729C119.833 9.58157 119.776 9.67121 119.74 9.76991C119.64 10.1099 119.74 10.3799 120.13 10.3999C120.2 10.4025 120.266 10.4321 120.314 10.4824C120.363 10.5328 120.39 10.6 120.39 10.6699C120.34 16.3099 120.45 26.0099 120.39 31.7199C120.21 32.0199 119.93 32.5199 119.74 32.8199V32.7199C119.751 33.358 119.69 33.9952 119.56 34.6199L119.54 34.5199Z" fill="#F6F7F8"/>
<path d="M140.25 3.91998C140.333 4.16192 140.4 4.40913 140.45 4.65998C139.824 5.55836 139.025 6.32319 138.1 6.90998L138.21 6.72998L137.83 8.19998C137.74 17.29 137.71 32.55 137.71 41.86V42.05H137.52L123.52 42.13L123.7 41.94V42.47H95.7V41.87L95.87 42.04H83.1V41.87C83.1 41.87 83.1 7.95998 83.1 8.16998L82.73 6.69998L82.79 6.78998L80.46 4.78998L80.39 4.72998C80.39 4.56998 80.39 3.86998 80.39 3.72998C94.79 3.77998 118.82 3.72998 132.95 3.72998C134.11 3.72998 137.4 3.72998 138.54 3.72998H139.47C139.83 3.72998 140.13 3.72998 140.25 3.99998V3.91998ZM140.19 3.85998C139.837 4.00063 139.459 4.06537 139.08 4.04998H138.15C121.81 4.04998 97.15 3.98998 80.58 4.04998L80.76 3.85998V4.61998L80.7 4.47998L83 6.51998V6.57998L83.37 8.03998C83.37 8.03998 83.37 41.78 83.37 41.83L83.2 41.65H96.05V42.25L95.87 42.07H123.56L123.37 42.26V41.73H123.56L137.51 41.64L137.32 41.84C137.37 32.41 137.25 17.6 137.18 8.05998V7.99998L137.54 6.52998V6.50998C138.222 5.6552 139.073 4.95048 140.04 4.43998L139.96 4.60998C140.044 4.36424 140.115 4.11382 140.17 3.85998H140.19Z" fill="#F6F7F8"/>
<path d="M83.27 19.48C83.8413 19.2986 84.4426 19.2307 85.04 19.28H90.36C91.6 19.28 94.49 19.28 95.68 19.28C95.98 19.28 96.28 19.28 96.57 19.28C96.8801 19.2546 97.1905 19.3244 97.46 19.48C97.1905 19.6356 96.8801 19.7054 96.57 19.68C96.28 19.68 95.98 19.68 95.68 19.68H85C84.4027 19.7241 83.8024 19.6563 83.23 19.48H83.27Z" fill="#F6F7F8"/>
<path d="M137.51 21.75C136.899 21.9369 136.257 22.0048 135.62 21.95H124.23C123.91 21.95 123.6 21.95 123.23 21.95C122.884 21.9752 122.537 21.9025 122.23 21.74C122.538 21.5804 122.884 21.5111 123.23 21.54C123.55 21.54 123.86 21.54 124.23 21.54H135.62C136.256 21.4874 136.897 21.5518 137.51 21.73V21.75Z" fill="#F6F7F8"/>
<path d="M122.27 19.4799C122.889 19.299 123.537 19.2313 124.18 19.2799H129.89C131.22 19.2799 134.32 19.2799 135.61 19.2799C135.93 19.2799 136.24 19.2799 136.56 19.2799C136.889 19.2534 137.219 19.3229 137.51 19.4799C137.219 19.637 136.889 19.7064 136.56 19.6799C136.24 19.6799 135.93 19.6799 135.61 19.6799H124.18C123.537 19.729 122.889 19.6612 122.27 19.4799Z" fill="#F6F7F8"/>
<path d="M97.32 21.91C96.7515 22.0884 96.1534 22.153 95.56 22.1H85C84.7 22.1 84.41 22.1 84.12 22.1C83.8134 22.1215 83.5072 22.0519 83.24 21.9C83.5064 21.7451 83.8124 21.6721 84.12 21.69C84.41 21.69 84.7 21.69 85 21.69H95.56C96.1542 21.6352 96.7533 21.7033 97.32 21.89V21.91Z" fill="#F6F7F8"/>
<path d="M99.65 19.48C99.6879 19.4224 99.74 19.3755 99.8014 19.344C99.8627 19.3124 99.9311 19.2973 100 19.3C100.113 19.2903 100.227 19.2903 100.34 19.3H104.34C104.453 19.29 104.567 19.29 104.68 19.3C104.79 19.3 104.9 19.3 105.02 19.5C104.9 19.71 104.79 19.68 104.68 19.7C104.57 19.72 104.45 19.7 104.34 19.7H100.34C100.227 19.7096 100.113 19.7096 100 19.7C99.935 19.6969 99.8715 19.6791 99.8143 19.648C99.7572 19.6168 99.7078 19.573 99.67 19.52L99.65 19.48Z" fill="#F6F7F8"/>
<path d="M107.14 21.75C107.179 21.6984 107.229 21.6558 107.286 21.6247C107.343 21.5937 107.405 21.5751 107.47 21.57C107.583 21.5603 107.697 21.5603 107.81 21.57H111.81C111.92 21.57 112.04 21.57 112.15 21.57C112.26 21.57 112.37 21.57 112.49 21.77C112.37 21.98 112.26 21.95 112.15 21.98C112.037 21.99 111.923 21.99 111.81 21.98H107.81C107.697 21.9896 107.583 21.9896 107.47 21.98C107.404 21.9793 107.34 21.9625 107.283 21.9312C107.225 21.8998 107.176 21.8547 107.14 21.8V21.75Z" fill="#F6F7F8"/>
<path d="M120.11 19.4799C120 19.6399 119.89 19.6299 119.77 19.6599C119.66 19.6699 119.55 19.6699 119.44 19.6599H115.44C115.32 19.6599 115.21 19.6599 115.1 19.6599C114.99 19.6599 114.87 19.6599 114.76 19.4599C114.87 19.2499 114.99 19.2799 115.1 19.2599C115.213 19.2499 115.327 19.2499 115.44 19.2599H119.44C119.55 19.25 119.66 19.25 119.77 19.2599C119.837 19.259 119.904 19.2749 119.963 19.3064C120.022 19.3378 120.073 19.3838 120.11 19.4399V19.4799Z" fill="#F6F7F8"/>
<path d="M105.08 21.75C105.044 21.8047 104.995 21.8498 104.937 21.8812C104.88 21.9126 104.816 21.9293 104.75 21.93C104.637 21.9396 104.523 21.9396 104.41 21.93H100.41C100.276 21.968 100.139 21.9915 100 22C99.89 22 99.78 22 99.66 21.79C99.78 21.58 99.89 21.62 100 21.59C100.11 21.56 100.23 21.59 100.34 21.59H104.34C104.453 21.5803 104.567 21.5803 104.68 21.59C104.745 21.5951 104.807 21.6137 104.864 21.6447C104.921 21.6758 104.971 21.7184 105.01 21.77L105.08 21.75Z" fill="#F6F7F8"/>
<path d="M107.15 19.4799C107.189 19.4256 107.24 19.381 107.299 19.3498C107.358 19.3186 107.423 19.3015 107.49 19.2999C107.603 19.2897 107.717 19.2897 107.83 19.2999H111.83C111.94 19.2899 112.05 19.2899 112.16 19.2999C112.28 19.2999 112.39 19.2999 112.5 19.4999C112.39 19.7099 112.28 19.6799 112.16 19.6999C112.04 19.7199 111.94 19.6999 111.83 19.6999H107.83C107.717 19.7102 107.603 19.7102 107.49 19.6999C107.424 19.6963 107.359 19.6783 107.3 19.6472C107.242 19.6161 107.19 19.5727 107.15 19.5199V19.4799Z" fill="#F6F7F8"/>
<path d="M114.77 21.75C114.809 21.6984 114.859 21.6558 114.916 21.6247C114.973 21.5937 115.035 21.5751 115.1 21.57C115.213 21.5603 115.327 21.5603 115.44 21.57H119.44C119.56 21.57 119.67 21.57 119.78 21.57C119.89 21.57 120 21.57 120.12 21.77C120 21.98 119.89 21.95 119.78 21.98C119.667 21.9896 119.553 21.9896 119.44 21.98H115.44C115.327 21.9896 115.213 21.9896 115.1 21.98C115.034 21.9793 114.97 21.9625 114.913 21.9312C114.855 21.8998 114.806 21.8547 114.77 21.8V21.75Z" fill="#F6F7F8"/>
<path d="M83.38 22.9399C83.9422 22.7641 84.5326 22.6962 85.12 22.7399H90.35C91.57 22.7399 94.4 22.7399 95.58 22.7399H96.45C96.7537 22.7148 97.0578 22.7847 97.32 22.9399C97.0578 23.0951 96.7537 23.165 96.45 23.1399C96.16 23.1399 95.87 23.1399 95.58 23.1399C94.42 23.1399 91.58 23.1399 90.35 23.1399H85.12C84.5324 23.1942 83.94 23.1261 83.38 22.9399Z" fill="#F6F7F8"/>
<path d="M137.31 22.9401C136.697 23.1214 136.057 23.1892 135.42 23.1401H124.08C123.77 23.1401 123.45 23.1401 123.14 23.1401C122.794 23.1761 122.445 23.1063 122.14 22.9401C122.445 22.7739 122.794 22.7042 123.14 22.7401H124.08C125.34 22.7401 128.45 22.7401 129.75 22.7401H135.42C136.057 22.691 136.697 22.7588 137.31 22.9401Z" fill="#F6F7F8"/>
<path d="M105 22.94C104.961 22.9943 104.91 23.0389 104.851 23.0701C104.792 23.1014 104.727 23.1184 104.66 23.12C104.55 23.1299 104.44 23.1299 104.33 23.12H100.33C100.22 23.13 100.11 23.13 100 23.12C99.89 23.12 99.78 23.12 99.66 22.92C99.78 22.71 99.89 22.74 100 22.72H100.33C100.78 22.72 101.87 22.72 102.33 22.72H104.33C104.44 22.72 104.55 22.72 104.66 22.72C104.726 22.726 104.79 22.7451 104.848 22.776C104.906 22.8069 104.958 22.849 105 22.9V22.94Z" fill="#F6F7F8"/>
<path d="M112.5 23.1901C112.464 23.2449 112.415 23.2899 112.357 23.3213C112.3 23.3527 112.236 23.3694 112.17 23.3701C112.057 23.3804 111.943 23.3804 111.83 23.3701H107.83C107.717 23.3801 107.603 23.3801 107.49 23.3701C107.38 23.3701 107.27 23.3701 107.16 23.1701C107.27 22.9601 107.38 22.9901 107.49 22.9701C107.603 22.9601 107.717 22.9601 107.83 22.9701C108.27 22.9701 109.37 22.9701 109.83 22.9701H111.83C111.943 22.9598 112.057 22.9598 112.17 22.9701C112.235 22.9732 112.299 22.991 112.356 23.0221C112.413 23.0533 112.462 23.0971 112.5 23.1501V23.1901Z" fill="#F6F7F8"/>
<path d="M114.65 23.1899C114.689 23.1323 114.741 23.085 114.802 23.0519C114.863 23.0188 114.931 23.001 115 22.9999C115.113 22.9896 115.227 22.9896 115.34 22.9999H117.34C117.8 22.9999 118.89 22.9999 119.34 22.9999C119.453 22.9899 119.567 22.9899 119.68 22.9999C119.79 22.9999 119.9 22.9999 120.01 23.1999C119.9 23.4099 119.79 23.3799 119.68 23.3999C119.567 23.4099 119.453 23.4099 119.34 23.3999H115.34C115.227 23.4102 115.113 23.4102 115 23.3999C114.934 23.3992 114.87 23.3825 114.813 23.3511C114.755 23.3197 114.706 23.2746 114.67 23.2199L114.65 23.1899Z" fill="#F6F7F8"/>
<path d="M89.49 32.5999C88.9338 32.7355 88.3624 32.7994 87.79 32.7899H85.74V26.6699H89.74V26.8699C89.74 27.8699 89.74 28.8699 89.74 29.8099V31.2799C89.767 31.7234 89.7093 32.168 89.57 32.5899L89.49 32.5999ZM89.49 32.5999C89.3252 31.6325 89.2649 30.6502 89.31 29.6699C89.31 28.7399 89.31 27.8099 89.31 26.8799L89.51 27.0799H85.94L86.14 26.8799V32.5999L85.94 32.4099C87.1267 32.3637 88.315 32.4273 89.49 32.5999Z" fill="#F6F7F8"/>
<path d="M96.62 32.5999C96.1279 32.7322 95.6194 32.7928 95.11 32.7799C94.49 32.7799 93.87 32.7799 93.26 32.7799V26.6699H96.83V26.8699C96.83 27.8699 96.83 28.8699 96.83 29.8099V31.2799C96.8628 31.7236 96.8049 32.1693 96.66 32.5899L96.62 32.5999ZM96.62 32.5999C96.4503 31.6331 96.39 30.6502 96.44 29.6699C96.44 28.7399 96.44 27.8099 96.44 26.8799L96.64 27.0799H93.45L93.66 26.8799V32.5999L93.46 32.4099C94.5204 32.3635 95.5827 32.4272 96.63 32.5999H96.62Z" fill="#F6F7F8"/>
<path d="M103.93 32.5999C103.438 32.731 102.929 32.7916 102.42 32.7799C101.8 32.7799 101.18 32.7799 100.56 32.7799V26.6699H104.14V26.8699C104.14 27.8699 104.14 28.8699 104.14 29.8099V31.2799C104.168 31.7234 104.11 32.1682 103.97 32.5899L103.93 32.5999ZM103.93 32.5999C103.757 31.6335 103.693 30.6506 103.74 29.6699C103.74 28.7399 103.74 27.8099 103.74 26.8799L103.95 27.0799H100.76L100.96 26.8799V32.5999L100.77 32.4099C101.83 32.3638 102.893 32.4274 103.94 32.5999H103.93Z" fill="#F6F7F8"/>
<path d="M111.44 32.5999C110.948 32.7322 110.439 32.7928 109.93 32.7799C109.32 32.7799 108.7 32.7799 108.08 32.7799V26.6699H111.66V26.8699C111.66 27.8699 111.66 28.8699 111.66 29.8099V31.2799C111.69 31.7243 111.628 32.17 111.48 32.5899L111.44 32.5999ZM111.44 32.5999C111.27 31.6331 111.21 30.6502 111.26 29.6699C111.26 28.7399 111.26 27.8099 111.26 26.8799L111.46 27.0799H108.3L108.5 26.8799V32.5999L108.31 32.4099C109.367 32.3635 110.426 32.4271 111.47 32.5999H111.44Z" fill="#F6F7F8"/>
<path d="M118.9 32.5999C118.408 32.7322 117.899 32.7928 117.39 32.7799C116.78 32.7799 116.15 32.7799 115.54 32.7799V26.6699H119.11V26.8699C119.11 27.8699 119.11 28.8699 119.11 29.8099V31.2799C119.135 31.7241 119.073 32.1688 118.93 32.5899L118.9 32.5999ZM118.9 32.5999C118.73 31.6331 118.67 30.6502 118.72 29.6699C118.72 28.7399 118.72 27.8099 118.72 26.8799L118.92 27.0799H115.75L115.96 26.8799V32.5999L115.76 32.4099C116.82 32.3635 117.883 32.4272 118.93 32.5999H118.9Z" fill="#F6F7F8"/>
<path d="M126.83 32.5999C126.338 32.7322 125.829 32.7928 125.32 32.7799C124.71 32.7799 124.08 32.7799 123.47 32.7799V26.6699H127V26.8699C127 27.8699 127 28.8699 127 29.8099V31.2799C127.03 31.7243 126.968 32.17 126.82 32.5899L126.83 32.5999ZM126.83 32.5999C126.66 31.6331 126.6 30.6502 126.65 29.6699C126.65 28.7399 126.65 27.8099 126.65 26.8799L126.85 27.0799H123.68L123.89 26.8799V32.5999L123.69 32.4099C124.75 32.3635 125.813 32.4272 126.86 32.5999H126.83Z" fill="#F6F7F8"/>
<path d="M134.55 32.5999C134.058 32.7322 133.549 32.7928 133.04 32.7799C132.42 32.7799 131.8 32.7799 131.18 32.7799V26.6699H134.75V26.8699C134.75 27.8699 134.75 28.8699 134.75 29.8099V31.2799C134.783 31.7236 134.725 32.1693 134.58 32.5899L134.55 32.5999ZM134.55 32.5999C134.38 31.6331 134.32 30.6502 134.37 29.6699C134.37 28.7399 134.37 27.8099 134.37 26.8799L134.57 27.0799H131.4L131.61 26.8799V32.5999L131.41 32.4099C132.47 32.3638 133.533 32.4274 134.58 32.5999H134.55Z" fill="#F6F7F8"/>
<path d="M87.72 32.69C87.6688 32.6705 87.6245 32.6364 87.5925 32.592C87.5605 32.5476 87.5423 32.4947 87.54 32.44C87.5304 32.3603 87.5304 32.2797 87.54 32.2V30.73C87.54 30.39 87.54 29.59 87.54 29.26C87.5296 29.177 87.5296 29.093 87.54 29.01C87.54 28.93 87.54 28.85 87.75 28.77C87.96 28.85 87.92 28.93 87.95 29.01C87.9605 29.093 87.9605 29.177 87.95 29.26C87.95 29.59 87.95 30.39 87.95 30.73V32.2C87.955 32.2799 87.955 32.3601 87.95 32.44C87.9435 32.4935 87.9235 32.5444 87.8921 32.5881C87.8606 32.6318 87.8186 32.6669 87.77 32.69H87.72Z" fill="#F6F7F8"/>
<path d="M85.94 28.77C85.957 28.7211 85.9878 28.6782 86.0286 28.6462C86.0693 28.6143 86.1184 28.5948 86.17 28.59C86.243 28.5801 86.317 28.5801 86.39 28.59H89.11C89.183 28.58 89.257 28.58 89.33 28.59C89.41 28.59 89.49 28.59 89.56 28.79C89.63 28.99 89.41 28.97 89.33 28.99C89.2568 28.995 89.1832 28.995 89.11 28.99H86.39C86.317 28.9999 86.243 28.9999 86.17 28.99C86.1192 28.983 86.0711 28.9627 86.0307 28.9311C85.9903 28.8995 85.959 28.8577 85.94 28.81V28.77Z" fill="#F6F7F8"/>
<path d="M94.92 32.69C94.8707 32.669 94.8285 32.6342 94.7984 32.5899C94.7683 32.5456 94.7515 32.4936 94.75 32.44C94.7404 32.3603 94.7404 32.2797 94.75 32.2V30.73C94.75 30.39 94.75 29.59 94.75 29.26C94.7396 29.177 94.7396 29.093 94.75 29.01C94.75 28.93 94.75 28.85 94.95 28.77C95.16 28.85 95.13 28.93 95.16 29.01C95.1705 29.093 95.1705 29.177 95.16 29.26C95.16 29.59 95.16 30.39 95.16 30.73V32.2C95.1697 32.2797 95.1697 32.3603 95.16 32.44C95.1578 32.4947 95.1395 32.5476 95.1075 32.592C95.0755 32.6364 95.0312 32.6705 94.98 32.69H94.92Z" fill="#F6F7F8"/>
<path d="M93.45 28.77C93.4634 28.7227 93.4905 28.6803 93.5279 28.6483C93.5652 28.6163 93.6112 28.596 93.66 28.59C93.7297 28.5802 93.8004 28.5802 93.87 28.59H96.35C96.4197 28.58 96.4904 28.58 96.56 28.59C96.63 28.59 96.7 28.59 96.77 28.79C96.84 28.99 96.63 28.97 96.56 28.99C96.4901 28.995 96.4199 28.995 96.35 28.99H93.87C93.8004 28.9999 93.7297 28.9999 93.66 28.99C93.59 28.99 93.52 28.99 93.45 28.81V28.77Z" fill="#F6F7F8"/>
<path d="M102.36 32.69C102.309 32.6705 102.265 32.6364 102.233 32.592C102.201 32.5476 102.182 32.4947 102.18 32.44C102.17 32.3603 102.17 32.2797 102.18 32.2V30.73C102.18 30.39 102.18 29.59 102.18 29.26C102.17 29.177 102.17 29.093 102.18 29.01C102.18 28.93 102.18 28.85 102.39 28.77C102.59 28.85 102.56 28.93 102.59 29.01C102.6 29.093 102.6 29.177 102.59 29.26C102.59 29.59 102.59 30.39 102.59 30.73V32.2C102.6 32.2797 102.6 32.3603 102.59 32.44C102.589 32.4936 102.572 32.5456 102.542 32.5899C102.512 32.6342 102.469 32.669 102.42 32.69H102.36Z" fill="#F6F7F8"/>
<path d="M100.58 28.77C100.594 28.7212 100.623 28.6779 100.662 28.6457C100.701 28.6136 100.749 28.5941 100.8 28.59C100.87 28.5802 100.94 28.5802 101.01 28.59H103.61C103.683 28.58 103.757 28.58 103.83 28.59C103.9 28.59 103.97 28.59 104.04 28.79C104.11 28.99 103.9 28.97 103.83 28.99C103.757 28.995 103.683 28.995 103.61 28.99H101C100.93 28.9999 100.86 28.9999 100.79 28.99C100.71 28.99 100.64 28.99 100.57 28.81L100.58 28.77Z" fill="#F6F7F8"/>
<path d="M109.93 32.69C109.879 32.6705 109.835 32.6364 109.803 32.592C109.771 32.5476 109.752 32.4947 109.75 32.44C109.74 32.3603 109.74 32.2797 109.75 32.2V30.73C109.75 30.39 109.75 29.59 109.75 29.26C109.74 29.177 109.74 29.093 109.75 29.01C109.75 28.93 109.75 28.85 109.95 28.77C110.16 28.85 110.13 28.93 110.15 29.01C110.155 29.0933 110.155 29.1768 110.15 29.26C110.15 29.59 110.15 30.39 110.15 30.73V32.2C110.165 32.2793 110.165 32.3607 110.15 32.44C110.143 32.4935 110.124 32.5444 110.092 32.5881C110.061 32.6318 110.019 32.6669 109.97 32.69H109.93Z" fill="#F6F7F8"/>
<path d="M108.28 28.77C108.34 28.61 108.41 28.61 108.48 28.59C108.546 28.5802 108.614 28.5802 108.68 28.59H111.1C111.166 28.58 111.234 28.58 111.3 28.59C111.37 28.59 111.44 28.59 111.5 28.79C111.56 28.99 111.37 28.97 111.3 28.99C111.233 28.995 111.167 28.995 111.1 28.99H108.68C108.614 28.9999 108.546 28.9999 108.48 28.99C108.41 28.99 108.34 28.99 108.28 28.81V28.77Z" fill="#F6F7F8"/>
<path d="M117.28 32.69C117.231 32.669 117.189 32.6342 117.158 32.5899C117.128 32.5456 117.111 32.4936 117.11 32.44C117.1 32.3603 117.1 32.2797 117.11 32.2V30.73C117.11 30.39 117.11 29.59 117.11 29.26C117.1 29.177 117.1 29.093 117.11 29.01C117.11 28.93 117.11 28.85 117.31 28.77C117.52 28.85 117.49 28.93 117.52 29.01C117.53 29.093 117.53 29.177 117.52 29.26C117.52 29.59 117.52 30.39 117.52 30.73V32.2C117.53 32.2797 117.53 32.3603 117.52 32.44C117.518 32.4947 117.499 32.5476 117.467 32.592C117.435 32.6364 117.391 32.6705 117.34 32.69H117.28Z" fill="#F6F7F8"/>
<path d="M115.51 28.77C115.525 28.7219 115.554 28.6793 115.593 28.6473C115.632 28.6153 115.68 28.5954 115.73 28.59C115.806 28.5805 115.884 28.5805 115.96 28.59H118.68C118.753 28.58 118.827 28.58 118.9 28.59C118.98 28.59 119.05 28.59 119.13 28.79C119.05 29 118.98 28.97 118.9 28.99C118.827 28.995 118.753 28.995 118.68 28.99H116C115.924 28.9995 115.846 28.9995 115.77 28.99C115.7 28.99 115.62 28.99 115.55 28.81L115.51 28.77Z" fill="#F6F7F8"/>
<path d="M125.21 32.69C125.161 32.669 125.118 32.6342 125.088 32.5899C125.058 32.5456 125.041 32.4936 125.04 32.44C125.03 32.3603 125.03 32.2797 125.04 32.2V30.73C125.04 30.39 125.04 29.59 125.04 29.26C125.03 29.177 125.03 29.093 125.04 29.01C125.04 28.93 125.04 28.85 125.24 28.77C125.45 28.85 125.42 28.93 125.45 29.01C125.46 29.093 125.46 29.177 125.45 29.26C125.45 29.59 125.45 30.39 125.45 30.73V32.2C125.46 32.2797 125.46 32.3603 125.45 32.44C125.448 32.4947 125.429 32.5476 125.397 32.592C125.365 32.6364 125.321 32.6705 125.27 32.69H125.21Z" fill="#F6F7F8"/>
<path d="M123.44 28.77C123.453 28.7227 123.48 28.6803 123.518 28.6483C123.555 28.6163 123.601 28.596 123.65 28.59C123.72 28.5802 123.79 28.5802 123.86 28.59H126.41C126.48 28.58 126.55 28.58 126.62 28.59C126.69 28.59 126.76 28.59 126.83 28.79C126.9 28.99 126.69 28.97 126.62 28.99C126.55 28.995 126.48 28.995 126.41 28.99H123.86C123.79 28.9999 123.72 28.9999 123.65 28.99C123.58 28.99 123.51 28.99 123.44 28.81V28.77Z" fill="#F6F7F8"/>
<path d="M132.93 32.69C132.881 32.6669 132.839 32.6318 132.808 32.5881C132.776 32.5444 132.757 32.4935 132.75 32.44C132.735 32.3607 132.735 32.2793 132.75 32.2V30.73C132.75 30.39 132.75 29.59 132.75 29.26C132.745 29.1768 132.745 29.0933 132.75 29.01C132.75 28.93 132.75 28.85 132.95 28.77C133.16 28.85 133.13 28.93 133.15 29.01C133.16 29.093 133.16 29.177 133.15 29.26C133.15 29.59 133.15 30.39 133.15 30.73V32.2C133.16 32.2797 133.16 32.3603 133.15 32.44C133.148 32.4947 133.129 32.5476 133.097 32.592C133.065 32.6364 133.021 32.6705 132.97 32.69H132.93Z" fill="#F6F7F8"/>
<path d="M131.16 28.77C131.173 28.7227 131.201 28.6803 131.238 28.6483C131.275 28.6163 131.321 28.596 131.37 28.59C131.44 28.5802 131.51 28.5802 131.58 28.59H134.13C134.2 28.58 134.27 28.58 134.34 28.59C134.41 28.59 134.48 28.59 134.55 28.79C134.62 28.99 134.41 28.97 134.34 28.99C134.27 28.995 134.2 28.995 134.13 28.99H131.58C131.51 28.9999 131.44 28.9999 131.37 28.99C131.3 28.99 131.23 28.99 131.16 28.81V28.77Z" fill="#F6F7F8"/>
<path d="M86.17 19.4801C85.9989 18.8758 85.9313 18.2469 85.97 17.6201V11.8401H89.97V12.0001C89.97 13.3101 89.97 16.3201 89.97 17.5801C89.97 17.8901 89.97 18.2001 89.97 18.5101C89.9791 18.8317 89.9105 19.1507 89.77 19.4401C89.6355 19.149 89.5704 18.8306 89.58 18.5101C89.58 18.2001 89.58 17.8901 89.58 17.5801C89.58 16.3301 89.58 13.2901 89.58 12.0001L89.78 12.2101H86.17L86.37 12.0001V17.5801C86.4071 18.2063 86.343 18.8343 86.18 19.4401L86.17 19.4801Z" fill="#F6F7F8"/>
<path d="M89.74 14.79C89.7248 14.8381 89.6959 14.8808 89.6568 14.9127C89.6177 14.9447 89.5702 14.9646 89.52 14.97C89.4437 14.9798 89.3664 14.9798 89.29 14.97H86.61C86.537 14.98 86.463 14.98 86.39 14.97C86.31 14.97 86.24 14.97 86.17 14.76C86.1 14.55 86.31 14.59 86.39 14.56C86.463 14.55 86.537 14.55 86.61 14.56H89.29C89.3664 14.5502 89.4437 14.5502 89.52 14.56C89.569 14.5646 89.6157 14.583 89.6546 14.6131C89.6936 14.6432 89.7232 14.6837 89.74 14.73V14.79Z" fill="#F6F7F8"/>
<path d="M88 19.56C87.9497 19.5264 87.9075 19.4821 87.8764 19.4302C87.8452 19.3783 87.826 19.3202 87.82 19.26C87.81 19.1603 87.81 19.0598 87.82 18.96V17.18C87.82 16.76 87.82 15.79 87.82 15.39C87.82 15.29 87.82 15.19 87.82 15.09C87.82 14.99 87.82 14.89 88.02 14.79C88.23 14.89 88.2 14.99 88.23 15.09C88.2399 15.1898 88.2399 15.2903 88.23 15.39C88.23 15.79 88.23 16.77 88.23 17.18V19C88.2399 19.0998 88.2399 19.2003 88.23 19.3C88.228 19.3612 88.2104 19.4209 88.1789 19.4734C88.1474 19.5259 88.103 19.5695 88.05 19.6L88 19.56Z" fill="#F6F7F8"/>
<path d="M93 19.4801C92.8387 18.8739 92.7713 18.2467 92.8 17.6201V11.8401H96.8V12.0001C96.8 13.3101 96.8 16.3201 96.8 17.5801C96.8 17.8901 96.8 18.2001 96.8 18.5101C96.8096 18.8306 96.7445 19.149 96.61 19.4401C96.4695 19.1507 96.4009 18.8317 96.41 18.5101C96.41 18.2001 96.41 17.8901 96.41 17.5801C96.41 16.3301 96.41 13.2901 96.41 12.0001L96.62 12.2101H93L93.2 12.0001V17.5801C93.2287 18.2067 93.1613 18.8339 93 19.4401V19.4801Z" fill="#F6F7F8"/>
<path d="M96.62 14.79C96.6029 14.8389 96.5722 14.8818 96.5314 14.9137C96.4906 14.9456 96.4415 14.9652 96.39 14.97C96.317 14.9798 96.243 14.9798 96.17 14.97H93.49C93.4136 14.9799 93.3363 14.9799 93.26 14.97C93.19 14.97 93.12 14.97 93.04 14.76C93.12 14.56 93.19 14.59 93.26 14.56C93.3363 14.55 93.4136 14.55 93.49 14.56H96.17C96.243 14.5501 96.317 14.5501 96.39 14.56C96.4404 14.5639 96.4887 14.5819 96.5293 14.612C96.57 14.6421 96.6014 14.6829 96.62 14.73V14.79Z" fill="#F6F7F8"/>
<path d="M94.83 19.56C94.7769 19.5295 94.7326 19.4859 94.7011 19.4334C94.6696 19.3809 94.652 19.3212 94.65 19.26C94.64 19.1603 94.64 19.0598 94.65 18.96V17.18C94.65 16.76 94.65 15.79 94.65 15.39C94.6399 15.2903 94.6399 15.1898 94.65 15.09C94.65 14.99 94.65 14.89 94.85 14.79C95.06 14.89 95.03 14.99 95.05 15.09C95.07 15.19 95.05 15.29 95.05 15.39C95.05 15.79 95.05 16.77 95.05 17.18V19C95.05 19.1 95.05 19.2 95.05 19.3C95.044 19.3602 95.0247 19.4183 94.9936 19.4702C94.9625 19.5221 94.9203 19.5664 94.87 19.6L94.83 19.56Z" fill="#F6F7F8"/>
<path d="M100.6 19.4801C100.437 18.8743 100.373 18.2463 100.41 17.6201V11.8401H104.41V12.0001C104.41 13.3101 104.41 16.3201 104.41 17.5801C104.41 17.8901 104.41 18.2001 104.41 18.5101C104.42 18.8306 104.355 19.149 104.22 19.4401C104.08 19.1507 104.011 18.8317 104.02 18.5101C104.02 18.2001 104.02 17.8901 104.02 17.5801C104.02 16.3301 104.02 13.2901 104.02 12.0001L104.23 12.2101H100.6L100.8 12.0001V17.5801C100.829 18.2067 100.761 18.8339 100.6 19.4401V19.4801Z" fill="#F6F7F8"/>
<path d="M104.18 14.79C104.172 14.838 104.151 14.8828 104.119 14.9198C104.087 14.9567 104.046 14.9845 104 15C103.927 15.0099 103.853 15.0099 103.78 15H101.1C101.024 15.0099 100.946 15.0099 100.87 15C100.8 15 100.73 15 100.65 14.79C100.73 14.59 100.8 14.62 100.87 14.59C100.946 14.58 101.024 14.58 101.1 14.59H103.78C103.853 14.5801 103.927 14.5801 104 14.59C104.05 14.5939 104.099 14.612 104.139 14.642C104.18 14.6721 104.211 14.713 104.23 14.76L104.18 14.79Z" fill="#F6F7F8"/>
<path d="M102.39 19.2199C102.338 19.1959 102.294 19.158 102.262 19.1104C102.23 19.0627 102.212 19.0072 102.21 18.9499C102.2 18.8568 102.2 18.763 102.21 18.6699V16.9999C102.21 16.6099 102.21 15.7099 102.21 15.3399C102.2 15.2469 102.2 15.153 102.21 15.0599C102.2 15.0284 102.197 14.995 102.203 14.9624C102.208 14.9297 102.221 14.8988 102.24 14.8721C102.26 14.8454 102.285 14.8237 102.315 14.8087C102.344 14.7937 102.377 14.7859 102.41 14.7859C102.443 14.7859 102.476 14.7937 102.505 14.8087C102.535 14.8237 102.56 14.8454 102.58 14.8721C102.599 14.8988 102.612 14.9297 102.617 14.9624C102.623 14.995 102.62 15.0284 102.61 15.0599C102.615 15.1532 102.615 15.2467 102.61 15.3399C102.61 15.7099 102.61 16.6199 102.61 16.9999V18.6599C102.62 18.753 102.62 18.8468 102.61 18.9399C102.61 19.0299 102.61 19.1199 102.43 19.2099L102.39 19.2199Z" fill="#F6F7F8"/>
<path d="M108 19.4801C107.839 18.8739 107.771 18.2467 107.8 17.6201V11.8401H111.8V12.0001C111.8 13.3101 111.8 16.3201 111.8 17.5801C111.8 17.8901 111.8 18.2001 111.8 18.5101C111.809 18.8317 111.741 19.1507 111.6 19.4401C111.466 19.149 111.4 18.8306 111.41 18.5101C111.41 18.2001 111.41 17.8901 111.41 17.5801C111.41 16.3301 111.41 13.2901 111.41 12.0001L111.61 12.2101H108L108.2 12.0001V17.5801C108.237 18.2063 108.173 18.8343 108.01 19.4401L108 19.4801Z" fill="#F6F7F8"/>
<path d="M111.55 14.79C111.536 14.8387 111.507 14.8821 111.468 14.9143C111.429 14.9464 111.381 14.9658 111.33 14.97C111.257 14.9798 111.183 14.9798 111.11 14.97H108.43C108.354 14.9799 108.276 14.9799 108.2 14.97C108.13 14.97 108.05 14.97 107.98 14.76C107.91 14.55 108.13 14.59 108.2 14.56C108.276 14.55 108.354 14.55 108.43 14.56H111.11C111.183 14.5501 111.257 14.5501 111.33 14.56C111.379 14.5633 111.427 14.5813 111.466 14.6115C111.505 14.6418 111.534 14.683 111.55 14.73V14.79Z" fill="#F6F7F8"/>
<path d="M109.77 19.22C109.718 19.196 109.674 19.1581 109.642 19.1105C109.61 19.0628 109.592 19.0073 109.59 18.95C109.58 18.8569 109.58 18.7631 109.59 18.67V17C109.59 16.61 109.59 15.71 109.59 15.34C109.58 15.247 109.58 15.1531 109.59 15.06C109.59 14.97 109.59 14.88 109.8 14.78C109.86 14.7978 109.912 14.835 109.948 14.8857C109.984 14.9364 110.003 14.9978 110 15.06C110.005 15.1533 110.005 15.2468 110 15.34C110 15.71 110 16.62 110 17V18.66C110.01 18.7531 110.01 18.847 110 18.94C109.993 18.996 109.973 19.0496 109.942 19.0965C109.911 19.1434 109.869 19.1823 109.82 19.21L109.77 19.22Z" fill="#F6F7F8"/>
<path d="M115.63 19.4801C115.469 18.8739 115.401 18.2467 115.43 17.6201V11.8401H119.43V12.0001C119.43 13.3101 119.43 16.3201 119.43 17.5801C119.43 17.8901 119.43 18.2001 119.43 18.5101C119.439 18.8317 119.371 19.1507 119.23 19.4401C119.096 19.149 119.03 18.8306 119.04 18.5101C119.04 18.2001 119.04 17.8901 119.04 17.5801C119.04 16.3301 119.04 13.2901 119.04 12.0001L119.24 12.2101H115.67L115.87 12.0001V17.5801C115.907 18.2063 115.843 18.8343 115.68 19.4401L115.63 19.4801Z" fill="#F6F7F8"/>
<path d="M119.2 14.79C119.191 14.8409 119.168 14.888 119.132 14.9254C119.096 14.9628 119.05 14.9888 119 15C118.927 15.0099 118.853 15.0099 118.78 15H116.1C116.024 15.0099 115.946 15.0099 115.87 15C115.8 15 115.72 15 115.65 14.79C115.58 14.58 115.8 14.62 115.87 14.59C115.943 14.5797 116.017 14.5797 116.09 14.59H118.78C118.853 14.5801 118.927 14.5801 119 14.59C119.049 14.5946 119.096 14.613 119.135 14.6431C119.174 14.6732 119.203 14.7137 119.22 14.76L119.2 14.79Z" fill="#F6F7F8"/>
<path d="M117.42 19.48C117.368 19.4511 117.324 19.4092 117.292 19.3585C117.261 19.3077 117.243 19.2497 117.24 19.19C117.23 19.0903 117.23 18.9898 117.24 18.89V17.14C117.24 16.73 117.24 15.78 117.24 15.38C117.23 15.2836 117.23 15.1865 117.24 15.09C117.24 14.99 117.24 14.89 117.45 14.79C117.66 14.89 117.62 14.99 117.65 15.09C117.66 15.1865 117.66 15.2836 117.65 15.38C117.65 15.77 117.65 16.73 117.65 17.14V18.89C117.665 18.9895 117.665 19.0906 117.65 19.19C117.647 19.2486 117.631 19.3056 117.601 19.3561C117.571 19.4066 117.53 19.4492 117.48 19.48H117.42Z" fill="#F6F7F8"/>
<path d="M123.26 19.4801C123.094 18.8749 123.026 18.2468 123.06 17.6201V11.8401H127.06V12.0001C127.06 13.3101 127.06 16.3201 127.06 17.5801C127.06 17.8901 127.06 18.2001 127.06 18.5101C127.069 18.8317 127.001 19.1507 126.86 19.4401C126.725 19.149 126.66 18.8306 126.67 18.5101C126.67 18.2001 126.67 17.8901 126.67 17.5801C126.67 16.3301 126.67 13.2901 126.67 12.0001L126.87 12.2101H123.3L123.5 12.0001V17.5801C123.537 18.2063 123.473 18.8343 123.31 19.4401L123.26 19.4801Z" fill="#F6F7F8"/>
<path d="M126.83 14.7899C126.815 14.8381 126.786 14.8807 126.747 14.9127C126.708 14.9446 126.66 14.9645 126.61 14.9699C126.537 14.9798 126.463 14.9798 126.39 14.9699H123.7C123.627 14.9802 123.553 14.9802 123.48 14.9699C123.41 14.9699 123.33 14.9699 123.26 14.7599C123.19 14.5499 123.41 14.5899 123.48 14.5599C123.553 14.5497 123.627 14.5497 123.7 14.5599H126.39C126.463 14.5501 126.537 14.5501 126.61 14.5599C126.659 14.5646 126.706 14.583 126.745 14.6131C126.784 14.6432 126.813 14.6837 126.83 14.7299V14.7899Z" fill="#F6F7F8"/>
<path d="M125.05 19.56C124.997 19.5295 124.953 19.4859 124.921 19.4334C124.89 19.3809 124.872 19.3212 124.87 19.26C124.86 19.1603 124.86 19.0598 124.87 18.96V17.18C124.87 16.76 124.87 15.79 124.87 15.39C124.86 15.2903 124.86 15.1898 124.87 15.09C124.87 14.99 124.87 14.89 125.08 14.79C125.28 14.89 125.25 14.99 125.28 15.09C125.29 15.1898 125.29 15.2903 125.28 15.39C125.28 15.79 125.28 16.77 125.28 17.18V19C125.29 19.0998 125.29 19.2003 125.28 19.3C125.278 19.3601 125.262 19.4188 125.232 19.4711C125.202 19.5233 125.161 19.5676 125.11 19.6L125.05 19.56Z" fill="#F6F7F8"/>
<path d="M131.18 19.4801C131.019 18.8739 130.951 18.2467 130.98 17.6201V11.8401H134.98V12.0001C134.98 13.3101 134.98 16.3201 134.98 17.5801C134.98 17.8901 134.98 18.2001 134.98 18.5101C134.989 18.8317 134.921 19.1507 134.78 19.4401C134.646 19.149 134.58 18.8306 134.59 18.5101C134.59 18.2001 134.59 17.8901 134.59 17.5801C134.59 16.3301 134.59 13.2901 134.59 12.0001L134.79 12.2101H131.22L131.42 12.0001V17.5801C131.457 18.2063 131.393 18.8343 131.23 19.4401L131.18 19.4801Z" fill="#F6F7F8"/>
<path d="M134.75 14.79C134.735 14.8381 134.706 14.8807 134.667 14.9127C134.628 14.9446 134.58 14.9645 134.53 14.97C134.457 14.9798 134.383 14.9798 134.31 14.97H131.63C131.554 14.9799 131.476 14.9799 131.4 14.97C131.33 14.97 131.25 14.97 131.18 14.76C131.11 14.55 131.33 14.59 131.4 14.56C131.476 14.55 131.554 14.55 131.63 14.56H134.31C134.383 14.5501 134.457 14.5501 134.53 14.56C134.579 14.5646 134.626 14.583 134.665 14.6131C134.704 14.6432 134.733 14.6837 134.75 14.73V14.79Z" fill="#F6F7F8"/>
<path d="M133 19.56C132.947 19.5295 132.903 19.4859 132.871 19.4334C132.84 19.3809 132.822 19.3212 132.82 19.26C132.81 19.1603 132.81 19.0598 132.82 18.96V17.18C132.82 16.76 132.82 15.79 132.82 15.39C132.81 15.2903 132.81 15.1898 132.82 15.09C132.82 14.99 132.82 14.89 133.03 14.79C133.24 14.89 133.2 14.99 133.23 15.09C133.24 15.1898 133.24 15.2903 133.23 15.39C133.23 15.79 133.23 16.77 133.23 17.18V19C133.245 19.0995 133.245 19.2006 133.23 19.3C133.228 19.3601 133.212 19.4188 133.182 19.4711C133.152 19.5233 133.111 19.5676 133.06 19.6L133 19.56Z" fill="#F6F7F8"/>
<path d="M95.87 34.4199C95.9298 34.4824 95.9764 34.5561 96.0074 34.6368C96.0383 34.7175 96.0528 34.8035 96.05 34.8899C96.0602 35.0464 96.0602 35.2034 96.05 35.3599C96.05 35.9499 96.05 37.5599 96.05 38.1799C96.05 38.7999 96.05 40.3599 96.05 40.9999C96.06 41.1564 96.06 41.3134 96.05 41.4699C96.05 41.6299 96.05 41.7799 95.84 41.9399C95.64 41.7799 95.67 41.6299 95.64 41.4699C95.63 41.3134 95.63 41.1564 95.64 40.9999C95.64 40.3699 95.64 38.8299 95.64 38.1799C95.64 37.5299 95.64 35.9599 95.64 35.3599C95.6298 35.2034 95.6298 35.0464 95.64 34.8899C95.635 34.7174 95.6957 34.5493 95.81 34.4199H95.87Z" fill="#F6F7F8"/>
<path d="M123.56 34.4199C123.672 34.5512 123.736 34.7172 123.74 34.8899C123.75 35.0464 123.75 35.2034 123.74 35.3599C123.74 35.9499 123.74 37.5599 123.74 38.1799C123.74 38.7999 123.74 40.3599 123.74 40.9999C123.74 41.1599 123.74 41.3099 123.74 41.4699C123.74 41.6299 123.74 41.7799 123.54 41.9399C123.33 41.7799 123.36 41.6299 123.33 41.4699C123.32 41.3134 123.32 41.1564 123.33 40.9999C123.33 40.3699 123.33 38.8299 123.33 38.1799C123.33 37.5299 123.33 35.9599 123.33 35.3599C123.32 35.2034 123.32 35.0464 123.33 34.8899C123.327 34.8035 123.342 34.7175 123.373 34.6368C123.404 34.5561 123.45 34.4824 123.51 34.4199H123.56Z" fill="#F6F7F8"/>
<path d="M89.13 39.5101C88.9991 39.243 88.9372 38.9473 88.95 38.6501C88.95 38.3701 88.95 38.0801 88.95 37.8001V36.0901L89.15 36.2901H86.37L86.57 36.0901V39.6501L86.37 39.4501H87.75C87.9767 39.4501 88.2067 39.4501 88.44 39.4501C88.6861 39.4361 88.9295 39.5066 89.13 39.6501C88.9272 39.7887 88.6854 39.8588 88.44 39.8501C87.68 39.8501 86.93 39.8501 86.17 39.8501C86.17 39.6401 86.17 36.0901 86.17 35.8501H89.34V37.8001C89.34 38.0801 89.34 38.3701 89.34 38.6501C89.3528 38.9473 89.2909 39.243 89.16 39.5101H89.13Z" fill="#F6F7F8"/>
<path d="M127.06 39.5101C126.929 39.243 126.867 38.9473 126.88 38.6501C126.88 38.3701 126.88 38.0801 126.88 37.8001V36.0901L127.08 36.2901H124.3L124.5 36.0901V39.6501L124.3 39.4501H125.68C125.907 39.4501 126.137 39.4501 126.37 39.4501C126.616 39.4361 126.86 39.5066 127.06 39.6501C126.857 39.7887 126.615 39.8588 126.37 39.8501C125.61 39.8501 124.86 39.8501 124.1 39.8501C124.1 39.6401 124.1 36.0901 124.1 35.8501H127.27V37.8001C127.27 38.0801 127.27 38.3701 127.27 38.6501C127.283 38.9473 127.221 39.243 127.09 39.5101H127.06Z" fill="#F6F7F8"/>
<path d="M134.44 39.5101C134.311 39.242 134.246 38.9476 134.25 38.6501C134.25 38.3701 134.25 38.0801 134.25 37.8001V36.0901L134.45 36.2901H131.69L131.89 36.0901V39.6501L131.7 39.4501H133.08C133.307 39.4501 133.537 39.4501 133.77 39.4501C134.016 39.4361 134.26 39.5066 134.46 39.6501C134.257 39.7887 134.015 39.8588 133.77 39.8501C133.01 39.8501 132.25 39.8501 131.5 39.8501C131.5 39.6401 131.5 36.0901 131.5 35.8501H134.67C134.67 35.8501 134.67 37.6501 134.67 37.7601C134.67 38.0401 134.67 38.3301 134.67 38.6101C134.678 38.9069 134.616 39.2014 134.49 39.4701L134.44 39.5101Z" fill="#F6F7F8"/>
<path d="M95.74 36.0901C95.5895 36.2097 95.4022 36.2733 95.21 36.2701C95.0335 36.2799 94.8565 36.2799 94.68 36.2701H93.61L93.81 36.0701C93.81 36.9601 93.81 38.7401 93.81 39.6301L93.61 39.4301H94.74C95.0748 39.3915 95.4138 39.4152 95.74 39.5001C95.91 39.6101 95.92 39.6401 95.74 39.7601C95.6066 39.8133 95.4634 39.8372 95.32 39.8301H93.42V35.8301H94.69C94.8665 35.8203 95.0435 35.8203 95.22 35.8301C95.413 35.8215 95.6022 35.8857 95.75 36.0101L95.74 36.0901Z" fill="#F6F7F8"/>
<path d="M103.43 40.0701C103.298 39.4694 103.237 38.8551 103.25 38.2401C103.25 37.6801 103.25 37.1301 103.25 36.5701L103.45 36.7601H100.32L100.53 36.5601V40.0601L100.33 39.8601H101.81C102.36 39.83 102.91 39.8908 103.44 40.0401L103.43 40.0701ZM103.43 40.0701C103.31 40.2201 103.02 40.2101 102.77 40.2401C102.52 40.2701 102.23 40.2401 101.96 40.2401H100.13V36.3601H103.64C103.64 37.0301 103.64 37.7101 103.64 38.3601C103.655 38.6632 103.655 38.967 103.64 39.2701C103.649 39.5348 103.597 39.798 103.49 40.0401L103.43 40.0701Z" fill="#F6F7F8"/>
<path d="M107.21 42.28C107.076 41.7372 107.015 41.1789 107.03 40.62C107.03 40.07 107.03 39.52 107.03 38.97V35.46H112.44V39C112.44 39.55 112.44 40.1 112.44 40.65C112.471 41.2114 112.4 41.7739 112.23 42.31C112.06 41.7739 111.989 41.2114 112.02 40.65C112.02 40.1 112.02 39.55 112.02 39V35.66L112.22 35.86H107.22L107.42 35.66V39C107.42 39.55 107.42 40.1 107.42 40.65C107.431 41.2093 107.368 41.7677 107.23 42.31L107.21 42.28Z" fill="#F6F7F8"/>
<path d="M119 40.0701C118.872 39.7981 118.807 39.5007 118.81 39.2001C118.81 38.9001 118.81 38.6101 118.81 38.3201V36.5701L119.01 36.7601H115.9L116.1 36.5601V40.0601L115.9 39.8601C116.43 39.8601 116.97 39.8601 117.51 39.8601H118.31C118.594 39.8454 118.876 39.915 119.12 40.0601C118.88 40.2147 118.595 40.285 118.31 40.2601C117.44 40.2601 116.57 40.2601 115.7 40.2601C115.7 40.0501 115.7 36.5601 115.7 36.3501H119.22C119.22 36.3501 119.22 38.2001 119.22 38.3501C119.22 38.6401 119.22 38.9301 119.22 39.2301C119.223 39.5296 119.162 39.8263 119.04 40.1001L119 40.0701Z" fill="#F6F7F8"/>
<path d="M109.17 37.6999C109.118 37.6607 109.076 37.611 109.045 37.5542C109.014 37.4973 108.995 37.4345 108.99 37.3699C108.98 37.2635 108.98 37.1564 108.99 37.0499V36.3999L109.19 36.5899H107.79L107.99 36.3899V37.6899L107.79 37.4899H108.52C108.64 37.475 108.76 37.475 108.88 37.4899C109 37.4899 109.12 37.4899 109.24 37.6899C109.206 37.7543 109.153 37.8075 109.089 37.8429C109.026 37.8784 108.953 37.8947 108.88 37.8899H107.59C107.59 37.8099 107.59 36.5099 107.59 36.3899V36.1799H109.4V37.0299C109.41 37.1364 109.41 37.2435 109.4 37.3499C109.397 37.415 109.379 37.4785 109.348 37.5356C109.317 37.5928 109.273 37.6421 109.22 37.6799L109.17 37.6999Z" fill="#F6F7F8"/>
<path d="M109.17 39.5701C109.12 39.5319 109.078 39.4838 109.047 39.4288C109.016 39.3737 108.996 39.3129 108.99 39.2501C108.98 39.1403 108.98 39.0298 108.99 38.9201V38.2701L109.19 38.4701H107.79L107.99 38.2701V39.5701L107.79 39.3701C108.03 39.3701 108.27 39.3701 108.52 39.3701H108.88C108.953 39.3653 109.026 39.3816 109.089 39.4171C109.153 39.4525 109.206 39.5056 109.24 39.5701C109.12 39.7801 109 39.7501 108.88 39.7701C108.52 39.7701 108.15 39.7701 107.79 39.7701H107.59C107.59 39.6901 107.59 38.3901 107.59 38.2701V38.0601H109.4V38.9101C109.41 39.0198 109.41 39.1303 109.4 39.2401C109.395 39.3034 109.377 39.3649 109.346 39.4202C109.315 39.4756 109.272 39.5233 109.22 39.5601L109.17 39.5701Z" fill="#F6F7F8"/>
<path d="M109.17 41.4499C109.12 41.4118 109.078 41.3637 109.047 41.3087C109.016 41.2536 108.996 41.1928 108.99 41.1299C108.98 41.0202 108.98 40.9097 108.99 40.7999V40.1499L109.19 40.3499H107.79L107.99 40.1499V41.4499L107.79 41.2499H108.88C108.953 41.2452 109.026 41.2615 109.089 41.2969C109.153 41.3324 109.206 41.3855 109.24 41.4499C109.12 41.6599 109 41.6299 108.88 41.6499H107.59C107.59 41.5699 107.59 40.2699 107.59 40.1499V39.9399H109.4V40.7899C109.41 40.8997 109.41 41.0102 109.4 41.1199C109.395 41.1833 109.377 41.2448 109.346 41.3001C109.315 41.3554 109.272 41.4032 109.22 41.4399L109.17 41.4499Z" fill="#F6F7F8"/>
<path d="M111.74 37.6999C111.685 37.6639 111.64 37.6149 111.609 37.5574C111.577 37.4998 111.561 37.4355 111.56 37.3699C111.55 37.2635 111.55 37.1564 111.56 37.0499V36.3999L111.76 36.5899H110.36L110.56 36.3899V37.6899L110.37 37.4899H111.09C111.21 37.475 111.33 37.475 111.45 37.4899C111.58 37.4899 111.7 37.4899 111.82 37.6899C111.7 37.8899 111.58 37.8699 111.45 37.8899H110.17C110.17 37.8099 110.17 36.5099 110.17 36.3899V36.1799H111.98V37.0299C111.995 37.1361 111.995 37.2438 111.98 37.3499C111.98 37.4144 111.964 37.4779 111.934 37.5353C111.905 37.5926 111.862 37.6422 111.81 37.6799L111.74 37.6999Z" fill="#F6F7F8"/>
<path d="M111.74 39.5701C111.687 39.535 111.642 39.4876 111.611 39.4319C111.58 39.3763 111.562 39.3139 111.56 39.2501C111.55 39.1403 111.55 39.0298 111.56 38.9201V38.2701L111.76 38.4701H110.36L110.56 38.2701V39.5701L110.37 39.3701C110.61 39.3701 110.85 39.3701 111.09 39.3701H111.45C111.58 39.3701 111.7 39.3701 111.82 39.5701C111.7 39.7801 111.58 39.7501 111.45 39.7701C111.09 39.7701 110.73 39.7701 110.37 39.7701H110.17C110.17 39.6901 110.17 38.3901 110.17 38.2701V38.0601H111.98V38.9101C111.995 39.0195 111.995 39.1306 111.98 39.2401C111.978 39.3029 111.962 39.3644 111.932 39.4199C111.903 39.4753 111.861 39.5233 111.81 39.5601L111.74 39.5701Z" fill="#F6F7F8"/>
<path d="M111.74 41.4499C111.687 41.4149 111.642 41.3675 111.611 41.3118C111.58 41.2561 111.562 41.1938 111.56 41.1299C111.55 41.0202 111.55 40.9097 111.56 40.7999V40.1499L111.76 40.3499H110.36L110.56 40.1499V41.4499L110.37 41.2499H111.45C111.58 41.2499 111.7 41.2499 111.82 41.4499C111.7 41.6599 111.58 41.6299 111.45 41.6499H110.17C110.17 41.5699 110.17 40.2699 110.17 40.1499V39.9399H111.98V40.7899C111.995 40.8994 111.995 41.0104 111.98 41.1199C111.978 41.1827 111.962 41.2443 111.932 41.2997C111.903 41.3552 111.861 41.4032 111.81 41.4399L111.74 41.4499Z" fill="#F6F7F8"/>
<path d="M88 11.88C87.91 11.88 87.8 11.88 87.81 11.73C87.82 11.58 87.81 11.24 87.81 11.01C87.8151 10.9635 87.8151 10.9165 87.81 10.87C87.81 10.87 87.81 10.87 87.81 10.8C87.81 10.73 87.81 10.75 88.01 10.73C88.21 10.71 88.19 10.73 88.22 10.8C88.2247 10.8111 88.2271 10.823 88.2271 10.835C88.2271 10.847 88.2247 10.8589 88.22 10.87V11C88.22 11.23 88.22 11.5 88.22 11.72C88.22 11.94 88.12 11.85 88.02 11.87L88 11.88Z" fill="#F6F7F8"/>
<path d="M94.9 11.88C94.8 11.88 94.69 11.88 94.7 11.73C94.71 11.58 94.7 11.24 94.7 11.01V10.87C94.6953 10.8589 94.6929 10.847 94.6929 10.835C94.6929 10.823 94.6953 10.8111 94.7 10.8C94.7 10.8 94.7 10.75 94.91 10.73C95.12 10.71 95.09 10.73 95.11 10.8C95.13 10.87 95.11 10.8 95.11 10.87C95.105 10.9165 95.105 10.9635 95.11 11.01C95.11 11.24 95.11 11.51 95.11 11.73C95.11 11.95 95.01 11.86 94.92 11.88H94.9Z" fill="#F6F7F8"/>
<path d="M102.39 12.0001C102.29 12.0001 102.18 12.0001 102.19 11.8401C102.2 11.6801 102.19 11.2901 102.19 11.0401V10.8801C102.19 10.8801 102.19 10.8201 102.19 10.8001C102.19 10.7801 102.19 10.7401 102.39 10.7201C102.59 10.7001 102.57 10.7201 102.59 10.8001C102.61 10.8801 102.59 10.8001 102.59 10.8801C102.585 10.9333 102.585 10.9869 102.59 11.0401C102.59 11.2901 102.59 11.5901 102.59 11.8401C102.59 12.0901 102.49 11.9901 102.39 12.0001Z" fill="#F6F7F8"/>
<path d="M109.81 11.88C109.72 11.88 109.6 11.88 109.62 11.73C109.64 11.58 109.62 11.24 109.62 11.01C109.625 10.9635 109.625 10.9165 109.62 10.87C109.62 10.87 109.62 10.87 109.62 10.8C109.62 10.73 109.62 10.75 109.82 10.73C110.02 10.71 110 10.73 110.03 10.8C110.035 10.8111 110.037 10.823 110.037 10.835C110.037 10.847 110.035 10.8589 110.03 10.87V11C110.03 11.23 110.03 11.5 110.03 11.72C110.03 11.94 109.93 11.85 109.83 11.87L109.81 11.88Z" fill="#F6F7F8"/>
<path d="M117.36 12.0699C117.26 12.0699 117.15 12.0099 117.16 11.8999C117.16 11.6399 117.16 11.3299 117.16 11.0599C117.16 10.9599 117.16 10.8399 117.16 10.8099C117.16 10.7799 117.16 10.7499 117.36 10.7299C117.56 10.7099 117.54 10.7299 117.56 10.8099C117.58 10.8899 117.56 10.9699 117.56 11.0599C117.56 11.3299 117.56 11.6399 117.56 11.8999C117.56 12.0099 117.47 12.0499 117.36 12.0699Z" fill="#F6F7F8"/>
<path d="M125 11.88C124.9 11.88 124.79 11.88 124.8 11.73C124.81 11.58 124.8 11.24 124.8 11.01V10.87C124.795 10.8589 124.793 10.847 124.793 10.835C124.793 10.823 124.795 10.8111 124.8 10.8C124.8 10.8 124.8 10.75 125.01 10.73C125.22 10.71 125.19 10.73 125.21 10.8C125.215 10.8111 125.217 10.823 125.217 10.835C125.217 10.847 125.215 10.8589 125.21 10.87C125.215 10.9165 125.215 10.9635 125.21 11.01C125.21 11.24 125.21 11.51 125.21 11.73C125.21 11.95 125.11 11.86 125.02 11.88H125Z" fill="#F6F7F8"/>
<path d="M133.05 11.88C132.96 11.88 132.85 11.88 132.86 11.73C132.87 11.58 132.86 11.24 132.86 11.01C132.865 10.9635 132.865 10.9165 132.86 10.87C132.86 10.87 132.86 10.87 132.86 10.8C132.86 10.73 132.86 10.75 133.06 10.73C133.26 10.71 133.24 10.73 133.27 10.8C133.275 10.8111 133.277 10.823 133.277 10.835C133.277 10.847 133.275 10.8589 133.27 10.87V11C133.27 11.23 133.27 11.5 133.27 11.72C133.27 11.94 133.17 11.85 133.07 11.87L133.05 11.88Z" fill="#F6F7F8"/>
<path d="M82.87 5.36011C83.3714 5.34378 83.8732 5.37055 84.37 5.44011C84.37 5.51011 84.45 5.58011 84.44 5.66011C84.43 5.74011 84.35 5.88011 84.44 5.89011C84.53 5.90011 84.57 5.89011 84.44 5.89011C84.31 5.89011 84.44 5.89011 82.89 5.89011C81.34 5.89011 81.52 5.89011 81.34 5.89011C81.34 5.89011 81.34 5.89011 81.34 5.82011V5.66011C81.3444 5.58339 81.3649 5.50845 81.4 5.44011C81.8968 5.37084 82.3986 5.34408 82.9 5.36011H82.87Z" fill="#F6F7F8"/>
<path d="M84 5.36008C84.0595 5.34872 84.1205 5.34872 84.18 5.36008C84.18 5.36008 84.18 5.62008 84.18 5.74008C84.18 5.86008 84.18 5.74008 84.18 5.81008C84.18 5.81008 84.18 5.81008 83.98 5.81008C83.78 5.81008 83.8 5.81008 83.78 5.81008C83.78 5.81008 83.78 5.81008 83.78 5.74008C83.77 5.61361 83.77 5.48654 83.78 5.36008C83.8395 5.34872 83.9005 5.34872 83.96 5.36008H84Z" fill="#F6F7F8"/>
<path d="M85.18 5.36008C85.2395 5.34872 85.3005 5.34872 85.36 5.36008C85.37 5.48654 85.37 5.61361 85.36 5.74008V5.81008C85.36 5.81008 85.36 5.81008 85.16 5.81008C84.96 5.81008 84.98 5.81008 84.96 5.81008C84.96 5.81008 84.96 5.81008 84.96 5.74008V5.44008C85.0195 5.42872 85.0805 5.42872 85.14 5.44008L85.18 5.36008Z" fill="#F6F7F8"/>
<path d="M86.33 5.36008C86.3895 5.34872 86.4506 5.34872 86.51 5.36008C86.51 5.36008 86.51 5.62008 86.51 5.74008C86.51 5.86008 86.51 5.74008 86.51 5.81008C86.51 5.81008 86.51 5.81008 86.31 5.81008C86.11 5.81008 86.13 5.81008 86.11 5.81008V5.82008C86.1 5.69361 86.1 5.56654 86.11 5.44008C86.1695 5.42872 86.2306 5.42872 86.29 5.44008L86.33 5.36008Z" fill="#F6F7F8"/>
<path d="M87.45 5.36008C87.5095 5.34872 87.5705 5.34872 87.63 5.36008C87.63 5.36008 87.63 5.62008 87.63 5.74008C87.63 5.86008 87.63 5.74008 87.63 5.81008C87.63 5.81008 87.63 5.81008 87.43 5.81008C87.23 5.81008 87.25 5.81008 87.23 5.81008V5.82008C87.22 5.69361 87.22 5.56654 87.23 5.44008C87.2895 5.42872 87.3506 5.42872 87.41 5.44008L87.45 5.36008Z" fill="#F6F7F8"/>
<path d="M88.69 5.36008C88.7495 5.34872 88.8105 5.34872 88.87 5.36008C88.87 5.36008 88.87 5.62008 88.87 5.74008C88.87 5.86008 88.87 5.74008 88.87 5.81008C88.87 5.81008 88.87 5.81008 88.67 5.81008C88.47 5.81008 88.49 5.81008 88.46 5.81008V5.82008C88.45 5.69361 88.45 5.56654 88.46 5.44008C88.5195 5.42872 88.5805 5.42872 88.64 5.44008L88.69 5.36008Z" fill="#F6F7F8"/>
<path d="M89.89 5.36008C89.9495 5.34872 90.0105 5.34872 90.07 5.36008C90.07 5.36008 90.07 5.62008 90.07 5.74008C90.07 5.86008 90.07 5.74008 90.07 5.81008C90.07 5.81008 90.07 5.81008 89.87 5.81008C89.67 5.81008 89.69 5.81008 89.66 5.81008V5.82008C89.65 5.69361 89.65 5.56654 89.66 5.44008C89.7195 5.42872 89.7805 5.42872 89.84 5.44008L89.89 5.36008Z" fill="#F6F7F8"/>
<path d="M91.12 5.36008C91.1795 5.34872 91.2405 5.34872 91.3 5.36008C91.3 5.36008 91.3 5.62008 91.3 5.74008C91.3 5.86008 91.3 5.74008 91.3 5.81008C91.3 5.81008 91.3 5.81008 91.1 5.81008C90.9 5.81008 90.92 5.81008 90.9 5.81008V5.82008C90.89 5.69361 90.89 5.56654 90.9 5.44008C90.9595 5.42872 91.0205 5.42872 91.08 5.44008L91.12 5.36008Z" fill="#F6F7F8"/>
<path d="M92.38 5.36008C92.4394 5.34872 92.5005 5.34872 92.56 5.36008C92.56 5.36008 92.56 5.62008 92.56 5.74008C92.56 5.86008 92.56 5.74008 92.56 5.81008C92.56 5.81008 92.56 5.81008 92.36 5.81008C92.16 5.81008 92.18 5.81008 92.15 5.81008V5.82008C92.14 5.69361 92.14 5.56654 92.15 5.44008C92.2095 5.42872 92.2705 5.42872 92.33 5.44008L92.38 5.36008Z" fill="#F6F7F8"/>
<path d="M93.53 5.35989C93.5894 5.34748 93.6507 5.34748 93.71 5.35989C93.72 5.48636 93.72 5.61342 93.71 5.73989V5.80989C93.71 5.80989 93.71 5.80989 93.5 5.80989C93.29 5.80989 93.32 5.80989 93.3 5.80989V5.81989C93.29 5.69342 93.29 5.56636 93.3 5.43989C93.3561 5.42858 93.4139 5.42858 93.47 5.43989L93.53 5.35989Z" fill="#F6F7F8"/>
<path d="M94.69 5.36008C94.7495 5.34872 94.8105 5.34872 94.87 5.36008C94.87 5.36008 94.87 5.62008 94.87 5.74008C94.87 5.86008 94.87 5.74008 94.87 5.81008C94.87 5.81008 94.87 5.81008 94.67 5.81008C94.47 5.81008 94.49 5.81008 94.46 5.81008V5.82008C94.45 5.69361 94.45 5.56654 94.46 5.44008C94.5195 5.42872 94.5805 5.42872 94.64 5.44008L94.69 5.36008Z" fill="#F6F7F8"/>
<path d="M95.83 5.35992C95.8895 5.34857 95.9506 5.34857 96.01 5.35992C96.02 5.48639 96.02 5.61345 96.01 5.73992V5.80992C96.01 5.80992 96.01 5.80992 95.8 5.80992C95.59 5.80992 95.62 5.80992 95.6 5.80992C95.6 5.80992 95.6 5.80992 95.6 5.73992C95.6 5.66992 95.6 5.46992 95.6 5.35992C95.6595 5.34857 95.7206 5.34857 95.78 5.35992H95.83Z" fill="#F6F7F8"/>
<path d="M97 5.35992C97.0595 5.34857 97.1205 5.34857 97.18 5.35992C97.19 5.48639 97.19 5.61345 97.18 5.73992V5.80992C97.18 5.80992 97.18 5.80992 96.97 5.80992C96.76 5.80992 96.79 5.80992 96.77 5.80992C96.77 5.80992 96.77 5.80992 96.77 5.73992C96.77 5.66992 96.77 5.46992 96.77 5.35992C96.8295 5.34857 96.8905 5.34857 96.95 5.35992H97Z" fill="#F6F7F8"/>
<path d="M98.19 5.35992C98.2495 5.34857 98.3105 5.34857 98.37 5.35992C98.38 5.48639 98.38 5.61345 98.37 5.73992V5.80992C98.37 5.80992 98.37 5.80992 98.17 5.80992C97.97 5.80992 97.99 5.80992 97.97 5.80992C97.97 5.80992 97.97 5.80992 97.97 5.73992C97.97 5.66992 97.97 5.46992 97.97 5.35992C98.0295 5.34857 98.0905 5.34857 98.15 5.35992H98.19Z" fill="#F6F7F8"/>
<path d="M99.39 5.35992C99.4495 5.34857 99.5106 5.34857 99.57 5.35992C99.58 5.48639 99.58 5.61345 99.57 5.73992V5.80992C99.57 5.80992 99.57 5.80992 99.37 5.80992C99.17 5.80992 99.19 5.80992 99.17 5.80992C99.17 5.80992 99.17 5.80992 99.17 5.73992C99.17 5.66992 99.17 5.46992 99.17 5.35992C99.2295 5.34857 99.2906 5.34857 99.35 5.35992H99.39Z" fill="#F6F7F8"/>
<path d="M100.62 5.35992C100.679 5.34857 100.741 5.34857 100.8 5.35992C100.81 5.48639 100.81 5.61345 100.8 5.73992V5.80992C100.8 5.80992 100.8 5.80992 100.59 5.80992C100.38 5.80992 100.41 5.80992 100.39 5.80992C100.39 5.80992 100.39 5.80992 100.39 5.73992C100.39 5.66992 100.39 5.46992 100.39 5.35992C100.449 5.34857 100.511 5.34857 100.57 5.35992H100.62Z" fill="#F6F7F8"/>
<path d="M102 5.35992C102.059 5.34857 102.121 5.34857 102.18 5.35992C102.19 5.48639 102.19 5.61345 102.18 5.73992C102.18 5.73992 102.18 5.73992 102.18 5.80992C102.18 5.80992 102.18 5.80992 101.98 5.80992C101.78 5.80992 101.8 5.80992 101.78 5.80992C101.78 5.80992 101.78 5.80992 101.78 5.73992C101.78 5.66992 101.78 5.46992 101.78 5.35992C101.839 5.34857 101.901 5.34857 101.96 5.35992H102Z" fill="#F6F7F8"/>
<path d="M103.17 5.36008C103.229 5.34872 103.291 5.34872 103.35 5.36008C103.35 5.36008 103.35 5.62008 103.35 5.74008C103.35 5.86008 103.35 5.74008 103.35 5.81008C103.35 5.81008 103.35 5.81008 103.15 5.81008C102.95 5.81008 102.97 5.81008 102.94 5.81008V5.82008C102.93 5.69361 102.93 5.56654 102.94 5.44008C102.999 5.42872 103.061 5.42872 103.12 5.44008L103.17 5.36008Z" fill="#F6F7F8"/>
<path d="M104.32 5.36008C104.379 5.34872 104.441 5.34872 104.5 5.36008C104.51 5.48654 104.51 5.61361 104.5 5.74008C104.5 5.74008 104.5 5.74008 104.5 5.81008C104.5 5.81008 104.5 5.81008 104.3 5.81008C104.1 5.81008 104.12 5.81008 104.1 5.81008C104.1 5.81008 104.1 5.81008 104.1 5.74008C104.09 5.61361 104.09 5.48654 104.1 5.36008C104.159 5.34872 104.221 5.34872 104.28 5.36008H104.32Z" fill="#F6F7F8"/>
<path d="M105.47 5.36008C105.529 5.34872 105.591 5.34872 105.65 5.36008C105.65 5.36008 105.65 5.62008 105.65 5.74008C105.65 5.86008 105.65 5.74008 105.65 5.81008C105.65 5.81008 105.65 5.81008 105.45 5.81008C105.25 5.81008 105.27 5.81008 105.24 5.81008V5.82008C105.23 5.69361 105.23 5.56654 105.24 5.44008C105.299 5.42872 105.361 5.42872 105.42 5.44008L105.47 5.36008Z" fill="#F6F7F8"/>
<path d="M106.59 5.36008C106.649 5.34872 106.711 5.34872 106.77 5.36008C106.77 5.36008 106.77 5.62008 106.77 5.74008C106.77 5.86008 106.77 5.74008 106.77 5.81008C106.77 5.81008 106.77 5.81008 106.57 5.81008C106.37 5.81008 106.39 5.81008 106.36 5.81008V5.82008C106.35 5.69361 106.35 5.56654 106.36 5.44008C106.419 5.42872 106.481 5.42872 106.54 5.44008L106.59 5.36008Z" fill="#F6F7F8"/>
<path d="M107.82 5.36008C107.879 5.34872 107.941 5.34872 108 5.36008C108.01 5.48654 108.01 5.61361 108 5.74008V5.81008C108 5.81008 108 5.81008 107.79 5.81008C107.58 5.81008 107.61 5.81008 107.59 5.81008V5.82008C107.58 5.69361 107.58 5.56654 107.59 5.44008C107.646 5.42757 107.704 5.42757 107.76 5.44008L107.82 5.36008Z" fill="#F6F7F8"/>
<path d="M109 5.36008C109.059 5.34872 109.121 5.34872 109.18 5.36008C109.19 5.48654 109.19 5.61361 109.18 5.74008V5.81008C109.18 5.81008 109.18 5.81008 108.97 5.81008C108.76 5.81008 108.79 5.81008 108.77 5.81008V5.82008C108.76 5.69361 108.76 5.56654 108.77 5.44008C108.826 5.42876 108.884 5.42876 108.94 5.44008L109 5.36008Z" fill="#F6F7F8"/>
<path d="M110.26 5.36008C110.319 5.34872 110.381 5.34872 110.44 5.36008C110.44 5.36008 110.44 5.62008 110.44 5.74008C110.44 5.86008 110.44 5.74008 110.44 5.81008C110.44 5.81008 110.44 5.81008 110.24 5.81008C110.04 5.81008 110.06 5.81008 110.03 5.81008V5.82008C110.02 5.69361 110.02 5.56654 110.03 5.44008C110.089 5.42872 110.151 5.42872 110.21 5.44008L110.26 5.36008Z" fill="#F6F7F8"/>
<path d="M111.5 5.35989C111.559 5.34748 111.621 5.34748 111.68 5.35989C111.69 5.48636 111.69 5.61342 111.68 5.73989V5.80989C111.68 5.80989 111.68 5.80989 111.47 5.80989C111.26 5.80989 111.29 5.80989 111.27 5.80989V5.81989C111.26 5.69342 111.26 5.56636 111.27 5.43989C111.326 5.42858 111.384 5.42858 111.44 5.43989L111.5 5.35989Z" fill="#F6F7F8"/>
<path d="M112.66 5.35992C112.719 5.34857 112.781 5.34857 112.84 5.35992C112.85 5.48639 112.85 5.61345 112.84 5.73992V5.80992C112.84 5.80992 112.84 5.80992 112.63 5.80992C112.42 5.80992 112.45 5.80992 112.43 5.80992C112.43 5.80992 112.43 5.80992 112.43 5.73992C112.43 5.66992 112.43 5.46992 112.43 5.35992C112.489 5.34857 112.551 5.34857 112.61 5.35992H112.66Z" fill="#F6F7F8"/>
<path d="M113.81 5.36008C113.869 5.34872 113.931 5.34872 113.99 5.36008C114 5.48654 114 5.61361 113.99 5.74008V5.81008C113.99 5.81008 113.99 5.81008 113.78 5.81008C113.57 5.81008 113.6 5.81008 113.58 5.81008V5.82008C113.57 5.69361 113.57 5.56654 113.58 5.44008C113.636 5.42876 113.694 5.42876 113.75 5.44008L113.81 5.36008Z" fill="#F6F7F8"/>
<path d="M115 5.35992C115.059 5.34857 115.121 5.34857 115.18 5.35992C115.19 5.48639 115.19 5.61345 115.18 5.73992V5.80992C115.18 5.80992 115.18 5.80992 114.98 5.80992C114.78 5.80992 114.8 5.80992 114.78 5.80992C114.78 5.80992 114.78 5.80992 114.78 5.73992C114.78 5.66992 114.78 5.46992 114.78 5.35992C114.839 5.34857 114.901 5.34857 114.96 5.35992H115Z" fill="#F6F7F8"/>
<path d="M116.08 5.35992C116.139 5.34857 116.201 5.34857 116.26 5.35992C116.27 5.48639 116.27 5.61345 116.26 5.73992V5.80992C116.26 5.80992 116.26 5.80992 116.06 5.80992C115.86 5.80992 115.88 5.80992 115.86 5.80992C115.86 5.80992 115.86 5.80992 115.86 5.73992C115.86 5.66992 115.86 5.46992 115.86 5.35992C115.919 5.34857 115.981 5.34857 116.04 5.35992H116.08Z" fill="#F6F7F8"/>
<path d="M117.32 5.36008C117.379 5.34872 117.441 5.34872 117.5 5.36008C117.5 5.36008 117.5 5.62008 117.5 5.74008C117.5 5.86008 117.5 5.74008 117.5 5.81008C117.5 5.81008 117.5 5.81008 117.3 5.81008C117.1 5.81008 117.12 5.81008 117.1 5.81008V5.82008C117.09 5.69361 117.09 5.56654 117.1 5.44008C117.159 5.42872 117.221 5.42872 117.28 5.44008L117.32 5.36008Z" fill="#F6F7F8"/>
<path d="M118.52 5.36008C118.579 5.34872 118.641 5.34872 118.7 5.36008C118.7 5.36008 118.7 5.62008 118.7 5.74008C118.7 5.86008 118.7 5.74008 118.7 5.81008C118.7 5.81008 118.7 5.81008 118.5 5.81008C118.3 5.81008 118.32 5.81008 118.3 5.81008V5.82008C118.29 5.69361 118.29 5.56654 118.3 5.44008C118.359 5.42872 118.421 5.42872 118.48 5.44008L118.52 5.36008Z" fill="#F6F7F8"/>
<path d="M119.75 5.35992C119.809 5.34857 119.871 5.34857 119.93 5.35992C119.94 5.48639 119.94 5.61345 119.93 5.73992V5.80992C119.93 5.80992 119.93 5.80992 119.73 5.80992C119.53 5.80992 119.55 5.80992 119.53 5.80992C119.53 5.80992 119.53 5.80992 119.53 5.73992C119.53 5.66992 119.53 5.46992 119.53 5.35992C119.589 5.34857 119.651 5.34857 119.71 5.35992H119.75Z" fill="#F6F7F8"/>
<path d="M120.92 5.35992C120.979 5.34857 121.041 5.34857 121.1 5.35992C121.11 5.48639 121.11 5.61345 121.1 5.73992V5.80992C121.1 5.80992 121.1 5.80992 120.89 5.80992C120.68 5.80992 120.71 5.80992 120.69 5.80992C120.69 5.80992 120.69 5.80992 120.69 5.73992C120.69 5.66992 120.69 5.46992 120.69 5.35992C120.749 5.34857 120.811 5.34857 120.87 5.35992H120.92Z" fill="#F6F7F8"/>
<path d="M122.08 5.36008C122.139 5.34872 122.201 5.34872 122.26 5.36008C122.26 5.36008 122.26 5.62008 122.26 5.74008C122.26 5.86008 122.26 5.74008 122.26 5.81008C122.26 5.81008 122.26 5.81008 122.06 5.81008C121.86 5.81008 121.88 5.81008 121.86 5.81008C121.86 5.81008 121.86 5.81008 121.86 5.74008C121.85 5.61361 121.85 5.48654 121.86 5.36008C121.919 5.34872 121.981 5.34872 122.04 5.36008H122.08Z" fill="#F6F7F8"/>
<path d="M123.23 5.35992C123.289 5.34857 123.351 5.34857 123.41 5.35992C123.42 5.48639 123.42 5.61345 123.41 5.73992V5.80992C123.41 5.80992 123.41 5.80992 123.21 5.80992C123.01 5.80992 123.03 5.80992 123.01 5.80992C123.01 5.80992 123.01 5.80992 123.01 5.73992C123.01 5.66992 123.01 5.46992 123.01 5.35992C123.069 5.34857 123.131 5.34857 123.19 5.35992H123.23Z" fill="#F6F7F8"/>
<path d="M124.38 5.36008C124.439 5.34872 124.501 5.34872 124.56 5.36008C124.56 5.36008 124.56 5.62008 124.56 5.74008C124.56 5.86008 124.56 5.74008 124.56 5.81008C124.56 5.81008 124.56 5.81008 124.36 5.81008C124.16 5.81008 124.18 5.81008 124.16 5.81008V5.82008C124.15 5.69361 124.15 5.56654 124.16 5.44008C124.219 5.42872 124.281 5.42872 124.34 5.44008L124.38 5.36008Z" fill="#F6F7F8"/>
<path d="M125.5 5.36008C125.559 5.34872 125.621 5.34872 125.68 5.36008C125.68 5.36008 125.68 5.62008 125.68 5.74008C125.68 5.86008 125.68 5.74008 125.68 5.81008C125.68 5.81008 125.68 5.81008 125.48 5.81008C125.28 5.81008 125.3 5.81008 125.28 5.81008V5.82008C125.27 5.69361 125.27 5.56654 125.28 5.44008C125.339 5.42872 125.401 5.42872 125.46 5.44008L125.5 5.36008Z" fill="#F6F7F8"/>
<path d="M126.74 5.36008C126.799 5.34872 126.861 5.34872 126.92 5.36008C126.92 5.36008 126.92 5.62008 126.92 5.74008C126.92 5.86008 126.92 5.74008 126.92 5.81008C126.92 5.81008 126.92 5.81008 126.72 5.81008C126.52 5.81008 126.54 5.81008 126.51 5.81008V5.82008C126.5 5.69361 126.5 5.56654 126.51 5.44008C126.569 5.42872 126.631 5.42872 126.69 5.44008L126.74 5.36008Z" fill="#F6F7F8"/>
<path d="M127.94 5.36008C127.999 5.34872 128.061 5.34872 128.12 5.36008C128.12 5.36008 128.12 5.62008 128.12 5.74008C128.12 5.86008 128.12 5.74008 128.12 5.81008C128.12 5.81008 128.12 5.81008 127.92 5.81008C127.72 5.81008 127.74 5.81008 127.71 5.81008V5.82008C127.7 5.69361 127.7 5.56654 127.71 5.44008C127.769 5.42872 127.831 5.42872 127.89 5.44008L127.94 5.36008Z" fill="#F6F7F8"/>
<path d="M129.17 5.36008C129.229 5.34872 129.291 5.34872 129.35 5.36008C129.35 5.36008 129.35 5.62008 129.35 5.74008C129.35 5.86008 129.35 5.74008 129.35 5.81008C129.35 5.81008 129.35 5.81008 129.15 5.81008C128.95 5.81008 128.97 5.81008 128.95 5.81008V5.82008C128.94 5.69361 128.94 5.56654 128.95 5.44008C129.009 5.42872 129.071 5.42872 129.13 5.44008L129.17 5.36008Z" fill="#F6F7F8"/>
<path d="M130.29 5.35992C130.349 5.34857 130.411 5.34857 130.47 5.35992C130.48 5.48639 130.48 5.61345 130.47 5.73992V5.80992C130.47 5.80992 130.47 5.80992 130.27 5.80992C130.07 5.80992 130.09 5.80992 130.07 5.80992C130.07 5.80992 130.07 5.80992 130.07 5.73992C130.07 5.66992 130.07 5.46992 130.07 5.35992C130.129 5.34857 130.191 5.34857 130.25 5.35992H130.29Z" fill="#F6F7F8"/>
<path d="M131.45 5.36008C131.509 5.34872 131.571 5.34872 131.63 5.36008C131.63 5.36008 131.63 5.62008 131.63 5.74008C131.63 5.86008 131.63 5.74008 131.63 5.81008C131.63 5.81008 131.63 5.81008 131.43 5.81008C131.23 5.81008 131.25 5.81008 131.23 5.81008V5.82008C131.22 5.69361 131.22 5.56654 131.23 5.44008C131.289 5.42872 131.351 5.42872 131.41 5.44008L131.45 5.36008Z" fill="#F6F7F8"/>
<path d="M132.6 5.35992C132.659 5.34857 132.721 5.34857 132.78 5.35992C132.79 5.48639 132.79 5.61345 132.78 5.73992C132.78 5.73992 132.78 5.73992 132.78 5.80992C132.78 5.80992 132.78 5.80992 132.58 5.80992C132.38 5.80992 132.4 5.80992 132.38 5.80992C132.38 5.80992 132.38 5.80992 132.38 5.73992C132.38 5.66992 132.38 5.46992 132.38 5.35992C132.439 5.34857 132.501 5.34857 132.56 5.35992H132.6Z" fill="#F6F7F8"/>
<path d="M133.75 5.36008C133.809 5.34872 133.871 5.34872 133.93 5.36008C133.93 5.36008 133.93 5.62008 133.93 5.74008C133.93 5.86008 133.93 5.74008 133.93 5.81008C133.93 5.81008 133.93 5.81008 133.73 5.81008C133.53 5.81008 133.55 5.81008 133.52 5.81008V5.82008C133.51 5.69361 133.51 5.56654 133.52 5.44008C133.579 5.42872 133.641 5.42872 133.7 5.44008L133.75 5.36008Z" fill="#F6F7F8"/>
<path d="M134.87 5.36008C134.929 5.34872 134.991 5.34872 135.05 5.36008C135.05 5.36008 135.05 5.62008 135.05 5.74008C135.05 5.86008 135.05 5.74008 135.05 5.81008C135.05 5.81008 135.05 5.81008 134.85 5.81008C134.65 5.81008 134.67 5.81008 134.64 5.81008V5.82008C134.63 5.69361 134.63 5.56654 134.64 5.44008C134.699 5.42872 134.761 5.42872 134.82 5.44008L134.87 5.36008Z" fill="#F6F7F8"/>
<path d="M136.1 5.35989C136.159 5.34748 136.221 5.34748 136.28 5.35989C136.29 5.48636 136.29 5.61342 136.28 5.73989V5.80989C136.28 5.80989 136.28 5.80989 136.07 5.80989C135.86 5.80989 135.89 5.80989 135.87 5.80989V5.81989C135.86 5.69342 135.86 5.56636 135.87 5.43989C135.926 5.42858 135.984 5.42858 136.04 5.43989L136.1 5.35989Z" fill="#F6F7F8"/>
<path d="M137.3 5.35989C137.359 5.34748 137.421 5.34748 137.48 5.35989C137.49 5.48636 137.49 5.61342 137.48 5.73989V5.80989C137.48 5.80989 137.48 5.80989 137.27 5.80989C137.06 5.80989 137.09 5.80989 137.07 5.80989V5.81989C137.06 5.69342 137.06 5.56636 137.07 5.43989C137.126 5.42858 137.184 5.42858 137.24 5.43989L137.3 5.35989Z" fill="#F6F7F8"/>
<path d="M138.54 5.36008C138.599 5.34872 138.661 5.34872 138.72 5.36008C138.72 5.36008 138.72 5.62008 138.72 5.74008C138.72 5.86008 138.72 5.74008 138.72 5.81008C138.72 5.81008 138.72 5.81008 138.52 5.81008C138.32 5.81008 138.34 5.81008 138.31 5.81008V5.82008C138.3 5.69361 138.3 5.56654 138.31 5.44008C138.369 5.42872 138.431 5.42872 138.49 5.44008L138.54 5.36008Z" fill="#F6F7F8"/>
<path d="M20.54 55.62C20.54 57.45 20.54 58.88 20.62 59.68C20.7 60.48 20.85 60.68 21.4 60.81C21.6453 60.8464 21.8923 60.8698 22.14 60.88C22.35 60.88 22.39 60.96 22.39 61.02C22.39 61.08 22.31 61.15 22.14 61.15C21.25 61.15 19.85 61.09 19.7 61.09C19.55 61.09 18.44 61.15 17.85 61.15C17.59 61.15 17.55 61.09 17.55 61.02C17.55 60.95 17.55 60.9 17.83 60.88C17.961 60.8668 18.0911 60.8468 18.22 60.82C18.52 60.82 18.81 60.58 18.86 59.74C18.91 58.9 18.94 57.32 18.94 55.49V47.73C18.9414 47.7142 18.9396 47.6983 18.9348 47.6832C18.93 47.6682 18.9223 47.6542 18.9121 47.6421C18.9018 47.63 18.8893 47.6201 18.8752 47.6128C18.8611 47.6056 18.8458 47.6012 18.83 47.6C18.54 47.6 17.59 47.6 14.69 47.6C11.79 47.6 11.41 47.6 11.14 47.6C10.87 47.6 10.82 47.6 10.82 47.96V55.68C10.82 57.51 10.82 58.84 10.9 59.68C10.98 60.52 11.07 60.75 11.64 60.85L12.42 60.92C12.65 60.92 12.71 61 12.71 61.07C12.71 61.14 12.63 61.19 12.36 61.19C11.56 61.19 10.06 61.13 9.96 61.13C9.86 61.13 8.76 61.19 8.19 61.19C7.98 61.19 7.85 61.19 7.85 61.07C7.85 60.95 7.85 60.96 8.08 60.92L8.5 60.86C8.93 60.79 9.11 60.41 9.14 59.59C9.17 58.77 9.22 57.49 9.22 55.66V52.23C9.22 49.23 9.22 48.76 9.22 48.15C9.22 47.54 8.95 47.15 8.42 47.06C8.17 47 8 47 7.79 47C7.58 47 7.56 46.92 7.56 46.84C7.56 46.76 7.68 46.73 7.89 46.73C8.59 46.73 9.68 46.79 9.96 46.79H19.66C19.76 46.79 21.21 46.73 21.66 46.73C21.92 46.73 21.94 46.79 21.94 46.84C21.94 46.89 21.89 46.96 21.7 47L21.33 47.05C20.86 47.17 20.65 47.28 20.61 48.12C20.61 48.73 20.61 49.28 20.61 52.26L20.54 55.62Z" fill="#F6F7F8"/>
<path d="M24.83 53.9299C24.8191 52.943 25.0063 51.9639 25.3805 51.0507C25.7547 50.1374 26.3083 49.3085 27.0085 48.6129C27.7088 47.9173 28.5414 47.3693 29.4571 47.0012C30.3729 46.6331 31.3532 46.4525 32.34 46.4699C36.63 46.4699 39.83 49.1799 39.83 53.6199C39.8738 54.6398 39.7084 55.6579 39.344 56.6115C38.9795 57.5651 38.4237 58.434 37.7108 59.1647C36.9979 59.8954 36.143 60.4724 35.1987 60.8603C34.2544 61.2481 33.2407 61.4386 32.22 61.4199C27 61.4199 24.83 57.3599 24.83 53.9299ZM38 54.1499C38 49.5799 35.22 47.1499 32.21 47.1499C29.02 47.1499 26.64 49.2499 26.64 53.4199C26.64 57.8599 29.31 60.7199 32.74 60.7199C34.45 60.6899 38 59.6999 38 54.1499Z" fill="#F6F7F8"/>
<path d="M45.68 53.49C46.27 52.92 48.86 50.19 50.03 48.99C51.2 47.79 51.25 47.62 51.25 47.39C51.2555 47.3068 51.2341 47.224 51.1892 47.1538C51.1442 47.0836 51.0779 47.0297 51 47C50.86 46.94 50.83 46.9 50.83 46.82C50.83 46.74 50.94 46.71 51.11 46.71C51.67 46.71 51.61 46.77 52.26 46.77C52.91 46.77 53.97 46.71 54.26 46.71C54.55 46.71 54.58 46.77 54.58 46.84C54.58 46.91 54.58 46.96 54.37 46.98C54.0261 47 53.688 47.0777 53.37 47.21C52.5993 47.5627 51.9162 48.0818 51.37 48.73C49.69 50.35 47.52 52.5 47.02 53.06C48.22 54.37 51.69 57.9 52.59 58.74C54.15 60.2 54.82 60.62 55.73 60.74C55.9104 60.7808 56.095 60.8009 56.28 60.8C56.44 60.8 56.55 60.8 56.55 60.94C56.55 61.08 56.47 61.07 56.26 61.07H54.92C54.3831 61.1424 53.837 61.0977 53.3191 60.9388C52.8012 60.78 52.3239 60.5109 51.92 60.15C49.702 58.0922 47.6146 55.8979 45.67 53.58V55.58C45.67 57.41 45.67 58.92 45.77 59.72C45.77 60.27 45.94 60.72 46.51 60.77C46.78 60.77 47.16 60.84 47.27 60.84C47.38 60.84 47.5 60.92 47.5 60.98C47.5 61.04 47.42 61.11 47.21 61.11C46.21 61.11 44.97 61.05 44.87 61.05C44.77 61.05 43.65 61.11 43.08 61.11C42.87 61.11 42.77 61.11 42.77 60.98C42.77 60.85 42.77 60.84 42.98 60.84C43.1482 60.8369 43.3158 60.8168 43.48 60.78C43.86 60.71 43.97 60.27 44.05 59.72C44.15 58.92 44.15 57.41 44.15 55.58V52.27C44.15 49.27 44.15 48.76 44.15 48.15C44.15 47.54 43.92 47.15 43.5 47.08C43.2726 47.0353 43.0417 47.0119 42.81 47.01C42.66 47.01 42.6 47.01 42.6 46.89C42.6 46.77 42.7 46.74 42.91 46.74C43.54 46.74 44.81 46.8 44.91 46.8C45.01 46.8 46.21 46.74 46.78 46.74C46.99 46.74 47.08 46.74 47.08 46.87C47.08 47 47.08 46.99 46.87 47.01H46.45C45.94 47.07 45.79 47.45 45.75 48.12C45.71 48.79 45.75 49.26 45.75 52.24L45.68 53.49Z" fill="#F6F7F8"/>
<path d="M58.53 52.27C58.53 49.27 58.53 48.76 58.53 48.15C58.53 47.54 58.34 47.2 57.71 47.06C57.4753 47.0213 57.2379 47.0012 57 47C56.92 47 56.85 47 56.85 46.88C56.85 46.76 56.94 46.73 57.15 46.73C58.01 46.73 59.15 46.79 59.31 46.79C59.73 46.79 60.83 46.73 61.71 46.73C64.09 46.73 64.95 47.53 65.25 47.82C65.5745 48.1472 65.8302 48.5361 66.002 48.9638C66.1737 49.3914 66.2581 49.8492 66.25 50.31C66.2419 50.9063 66.1122 51.4947 65.8688 52.0391C65.6253 52.5835 65.2732 53.0725 64.8341 53.476C64.395 53.8796 63.8781 54.1892 63.3151 54.3859C62.7521 54.5826 62.1549 54.6622 61.56 54.62C61.4268 54.6302 61.2931 54.6302 61.16 54.62C61.06 54.62 60.95 54.62 60.95 54.49C60.95 54.36 61.06 54.32 61.46 54.32C61.8959 54.3426 62.3317 54.274 62.7396 54.1187C63.1476 53.9634 63.5186 53.7248 63.8292 53.418C64.1397 53.1112 64.3829 52.7431 64.5431 52.3371C64.7034 51.9311 64.7772 51.4961 64.76 51.06C64.7771 50.0267 64.3937 49.0268 63.69 48.27C63.3486 47.9336 62.9388 47.6747 62.4884 47.5108C62.0381 47.3469 61.5577 47.2818 61.08 47.32C60.8016 47.3089 60.5235 47.3496 60.26 47.44C60.15 47.44 60.11 47.61 60.11 47.8V55.63C60.11 57.46 60.11 58.97 60.21 59.77C60.26 60.32 60.38 60.77 60.95 60.82C61.22 60.82 61.63 60.89 61.81 60.89C61.99 60.89 61.96 60.95 61.96 61.01C61.96 61.07 61.86 61.16 61.65 61.16C60.65 61.16 59.4 61.1 59.31 61.1C59.22 61.1 58.05 61.16 57.48 61.16C57.27 61.16 57.17 61.16 57.17 61.01C57.17 60.86 57.17 60.89 57.33 60.89C57.5215 60.8814 57.7121 60.858 57.9 60.82C58.28 60.74 58.38 60.32 58.45 59.77C58.55 58.97 58.55 57.46 58.55 55.63L58.53 52.27Z" fill="#F6F7F8"/>
<path d="M68.59 53.9299C68.5791 52.943 68.7664 51.9639 69.1406 51.0507C69.5148 50.1374 70.0683 49.3085 70.7686 48.6129C71.4688 47.9173 72.3014 47.3693 73.2171 47.0012C74.1329 46.6331 75.1132 46.4525 76.1 46.4699C80.39 46.4699 83.59 49.1799 83.59 53.6199C83.6338 54.639 83.4687 55.6562 83.1048 56.6091C82.741 57.562 82.1861 58.4305 81.4743 59.161C80.7625 59.8916 79.9087 60.4688 78.9656 60.8573C78.0225 61.2457 77.0098 61.4372 75.99 61.4199C70.76 61.4199 68.59 57.3599 68.59 53.9299ZM81.76 54.1499C81.76 49.5799 78.98 47.1499 75.97 47.1499C72.78 47.1499 70.4 49.2499 70.4 53.4199C70.4 57.8599 73.07 60.7199 76.5 60.7199C78.22 60.6899 81.76 59.6999 81.76 54.1499Z" fill="#F6F7F8"/>
<path d="M87.92 52.27C87.92 49.27 87.92 48.76 87.92 48.15C87.92 47.54 87.73 47.2 87.1 47.06C86.9179 47.0319 86.7342 47.0152 86.55 47.01C86.37 47.01 86.3 47.01 86.3 46.89C86.3 46.77 86.39 46.74 86.6 46.74C87.46 46.74 88.66 46.8 88.76 46.8C89.21 46.8 89.96 46.74 90.83 46.74C93.96 46.74 94.65 48.65 94.65 49.6C94.5958 50.2622 94.4052 50.9061 94.0903 51.4912C93.7754 52.0763 93.3429 52.59 92.82 53C93.7179 53.2386 94.5184 53.753 95.1086 54.4706C95.6989 55.1882 96.0491 56.0728 96.11 57C96.11 59 94.51 61.16 91.25 61.16L89.88 61.1C89.33 61.1 88.79 61.04 88.72 61.04C88.11 61.04 87.52 61.1 86.85 61.1C86.64 61.1 86.54 61.1 86.54 60.97C86.54 60.84 86.54 60.83 86.83 60.83C86.9852 60.8285 87.1396 60.8083 87.29 60.77C87.67 60.7 87.75 60.26 87.82 59.71C87.92 58.91 87.92 57.4 87.92 55.57V52.27ZM89.44 52.69C89.4311 52.7364 89.4408 52.7844 89.467 52.8236C89.4932 52.8629 89.5338 52.8903 89.58 52.9C89.964 52.9562 90.352 52.9796 90.74 52.97C91.8 52.97 92.07 52.97 92.47 52.48C92.9194 51.9376 93.1637 51.2544 93.16 50.55C93.16 48.97 92.45 47.27 90.59 47.27C90.2805 47.2688 89.9719 47.3023 89.67 47.37C89.5 47.37 89.44 47.46 89.44 47.58V52.69ZM89.44 54.69C89.44 56.15 89.44 58.52 89.44 58.8C89.5 59.74 89.5 60 90.09 60.29C90.6259 60.4945 91.1965 60.593 91.77 60.58C92.1299 60.6007 92.4902 60.5446 92.8267 60.4153C93.1633 60.286 93.4685 60.0866 93.722 59.8302C93.9755 59.5739 94.1715 59.2665 94.2971 58.9285C94.4226 58.5905 94.4747 58.2297 94.45 57.87C94.4728 57.1326 94.3164 56.4008 93.9942 55.7372C93.6719 55.0736 93.1935 54.498 92.6 54.06C92.1283 53.7341 91.573 53.5501 91 53.53C90.75 53.53 89.8 53.53 89.52 53.53C89.44 53.53 89.4 53.53 89.4 53.66L89.44 54.69Z" fill="#F6F7F8"/>
<path d="M101.22 59.36C100.451 58.6419 99.8469 57.7661 99.4482 56.7926C99.0495 55.8192 98.8659 54.771 98.91 53.72C98.9317 51.7738 99.6974 49.9096 101.05 48.51C102.19 47.37 103.93 46.51 106.86 46.51C107.788 46.5093 108.715 46.5863 109.63 46.74C110.35 46.88 110.94 46.93 111.63 47.03C111.76 47.03 111.8 47.12 111.8 47.24C111.8 47.36 111.74 47.62 111.7 48.3C111.66 48.98 111.7 49.98 111.64 50.3C111.58 50.62 111.64 50.7 111.47 50.7C111.3 50.7 111.32 50.56 111.32 50.3C111.328 49.9374 111.262 49.577 111.124 49.2414C110.986 48.9058 110.781 48.6023 110.52 48.35C109.397 47.5937 108.063 47.2154 106.71 47.27C104.17 47.27 102.99 48.01 102.32 48.66C101.694 49.3225 101.217 50.1117 100.922 50.9743C100.627 51.8369 100.521 52.7528 100.61 53.66C100.595 54.5732 100.763 55.4802 101.102 56.3282C101.441 57.1762 101.945 57.9483 102.585 58.5997C103.225 59.251 103.989 59.7686 104.831 60.1223C105.673 60.476 106.577 60.6588 107.49 60.66C108.079 60.7332 108.676 60.6867 109.247 60.5235C109.817 60.3603 110.349 60.0836 110.81 59.71C111.171 59.2383 111.411 58.6856 111.51 58.1C111.51 57.9 111.59 57.82 111.7 57.82C111.81 57.82 111.84 57.95 111.84 58.1C111.752 58.9214 111.612 59.7364 111.42 60.54C111.3 60.91 111.26 60.94 110.92 61.1C109.806 61.4238 108.649 61.5723 107.49 61.54C105.196 61.6576 102.946 60.8755 101.22 59.36Z" fill="#F6F7F8"/>
<path d="M117.55 53.49C118.15 52.92 120.74 50.19 121.9 48.99C123.06 47.79 123.12 47.62 123.12 47.39C123.119 47.3118 123.095 47.2357 123.05 47.1715C123.006 47.1074 122.943 47.058 122.87 47.03C122.74 46.97 122.7 46.93 122.7 46.85C122.7 46.77 122.81 46.74 122.99 46.74C123.54 46.74 123.48 46.8 124.13 46.8C124.78 46.8 125.85 46.74 126.13 46.74C126.41 46.74 126.45 46.8 126.45 46.87C126.45 46.94 126.45 46.99 126.24 47.01C125.896 47.03 125.558 47.1078 125.24 47.24C124.471 47.5953 123.788 48.114 123.24 48.76C121.56 50.38 119.39 52.53 118.89 53.09C120.1 54.4 123.56 57.93 124.46 58.77C126.02 60.23 126.69 60.65 127.61 60.77C127.79 60.8108 127.975 60.8309 128.16 60.83C128.31 60.83 128.42 60.83 128.42 60.97C128.42 61.11 128.35 61.1 128.14 61.1H126.8C126.263 61.1745 125.716 61.1307 125.198 60.9718C124.68 60.8129 124.203 60.5426 123.8 60.18C121.576 58.1252 119.485 55.9308 117.54 53.61V55.61C117.54 57.44 117.54 58.95 117.64 59.75C117.7 60.3 117.81 60.75 118.38 60.8C118.65 60.8 119.03 60.87 119.15 60.87C119.27 60.87 119.37 60.95 119.37 61.01C119.37 61.07 119.3 61.14 119.09 61.14C118.09 61.14 116.84 61.08 116.74 61.08C116.64 61.08 115.52 61.14 114.95 61.14C114.74 61.14 114.65 61.14 114.65 61.01C114.65 60.88 114.65 60.87 114.86 60.87C115.025 60.8663 115.189 60.8462 115.35 60.81C115.73 60.74 115.85 60.3 115.92 59.75C116.02 58.95 116.02 57.44 116.02 55.61V52.27C116.02 49.27 116.02 48.76 116.02 48.15C116.02 47.54 115.79 47.15 115.37 47.08C115.146 47.0358 114.918 47.0124 114.69 47.01C114.54 47.01 114.48 47.01 114.48 46.89C114.48 46.77 114.57 46.74 114.78 46.74C115.41 46.74 116.69 46.8 116.78 46.8C116.87 46.8 118.08 46.74 118.65 46.74C118.86 46.74 118.96 46.74 118.96 46.87C118.96 47 118.96 46.99 118.75 47.01H118.33C117.81 47.07 117.66 47.45 117.62 48.12C117.58 48.79 117.62 49.26 117.62 52.24L117.55 53.49Z" fill="#F6F7F8"/>
<path d="M131.68 58.9C134.04 56.02 138.96 49.9 140.83 47.64C141.53 46.78 141.83 46.47 142.07 46.47C142.31 46.47 142.35 46.63 142.35 48.28C142.35 51.85 142.35 55.28 142.41 58.8C142.41 60.2 142.58 60.71 143.19 60.8L143.93 60.87C144.16 60.87 144.22 60.95 144.22 61.01C144.22 61.07 144.14 61.14 143.93 61.14C143.25 61.14 141.57 61.08 141.26 61.08C140.95 61.08 140.26 61.14 139.55 61.14C139.32 61.14 139.26 61.14 139.26 61.02C139.26 60.9 139.26 60.89 139.55 60.87L140.1 60.8C140.65 60.68 140.73 59.88 140.75 58.45C140.81 55.33 140.75 52.14 140.83 48.88C139.83 50.12 131.83 60 131.07 60.88C130.67 61.32 130.46 61.42 130.36 61.42C130.26 61.42 130.11 61.26 130.11 60.5C130.11 57.36 130.17 53.07 130.11 49.41C130.11 47.31 129.89 47.18 129.28 47.06L128.67 47.01C128.51 47.01 128.46 46.95 128.46 46.87C128.46 46.79 128.63 46.74 128.84 46.74C129.43 46.74 130.63 46.8 130.93 46.8C131.54 46.8 132.31 46.74 132.84 46.74C133.07 46.74 133.16 46.74 133.16 46.85C133.16 46.96 133.16 46.99 132.92 47.01C132.68 47.03 132.59 47.01 132.42 47.06C131.89 47.18 131.75 47.39 131.72 49.01L131.68 58.9Z" fill="#F6F7F8"/>
<path d="M149.38 58.8999C151.75 56.0199 156.66 49.8999 158.53 47.6399C159.24 46.7799 159.53 46.4699 159.77 46.4699C160.01 46.4699 160.06 46.6299 160.06 48.2799C160.06 51.8499 160.06 55.2799 160.11 58.7999C160.11 60.1999 160.29 60.7099 160.9 60.7999L161.64 60.8699C161.87 60.8699 161.92 60.9499 161.92 61.0099C161.92 61.0699 161.85 61.1399 161.64 61.1399C160.95 61.1399 159.28 61.0799 158.97 61.0799C158.66 61.0799 157.97 61.1399 157.26 61.1399C157.03 61.1399 156.97 61.1399 156.97 61.0199C156.97 60.8999 156.97 60.8899 157.26 60.8699L157.81 60.7999C158.36 60.6799 158.44 59.8799 158.46 58.4499C158.46 55.3299 158.46 52.1399 158.53 48.8799C157.53 50.1199 149.53 59.9999 148.77 60.8799C148.37 61.3199 148.16 61.4199 148.07 61.4199C147.98 61.4199 147.82 61.2599 147.82 60.4999C147.82 57.3599 147.88 53.0699 147.82 49.4099C147.82 47.3099 147.59 47.1799 146.98 47.0599L146.37 47.0099C146.22 47.0099 146.16 46.9499 146.16 46.8699C146.16 46.7899 146.33 46.7399 146.54 46.7399C147.13 46.7399 148.34 46.7999 148.64 46.7999C149.25 46.7999 150.01 46.7399 150.55 46.7399C150.78 46.7399 150.87 46.7399 150.87 46.8499C150.87 46.9599 150.87 46.9899 150.62 47.0099C150.37 47.0299 150.3 47.0099 150.13 47.0599C149.59 47.1799 149.46 47.3899 149.42 49.0099L149.38 58.8999ZM150.93 43.4399C151.09 43.2058 151.307 43.0165 151.56 42.8899C151.61 42.8899 151.65 42.8899 151.67 42.9999C151.8 43.6499 152.72 44.4899 154.55 44.4899C155.141 44.5255 155.732 44.4156 156.271 44.1698C156.809 43.924 157.28 43.5497 157.64 43.0799C157.79 42.9099 157.81 42.9099 157.88 42.9099C157.95 42.9099 157.98 43.0399 157.88 43.1899C157.426 43.846 156.819 44.3818 156.112 44.7511C155.404 45.1205 154.618 45.3122 153.82 45.3099C152.97 45.3398 152.133 45.0981 151.43 44.6199C151.271 44.5206 151.136 44.3877 151.034 44.2305C150.932 44.0732 150.866 43.8955 150.84 43.7099C150.843 43.6131 150.875 43.5193 150.93 43.4399Z" fill="#F6F7F8"/>
<path d="M173.06 61.09C171.61 61.09 171.06 61.09 170.58 61.15C169.58 61.21 169.28 61.53 169.22 62.39C169.22 62.56 169.17 62.71 169.05 62.71C168.93 62.71 168.92 62.64 168.92 62.37C168.92 61.17 168.82 60.54 168.81 60.25C168.8 59.96 168.81 60.08 168.92 60.08C169.483 60.1544 170.052 60.1878 170.62 60.18C170.77 60.18 170.81 60.18 170.92 59.93L175.5 47.27C175.74 46.61 175.86 46.47 175.97 46.47C176.08 46.47 176.16 46.61 176.35 47.08C176.72 47.98 179.75 55.96 181.35 59.97C181.42 60.12 181.48 60.18 181.65 60.18C182.318 60.1799 182.986 60.1398 183.65 60.06C183.77 60.06 183.81 60.06 183.77 60.21C183.629 60.9418 183.552 61.6847 183.54 62.43C183.54 62.62 183.48 62.71 183.41 62.71C183.34 62.71 183.25 62.6 183.23 62.43C183.246 62.2604 183.225 62.0894 183.169 61.9285C183.114 61.7676 183.024 61.6206 182.906 61.4973C182.789 61.3741 182.646 61.2775 182.488 61.2142C182.33 61.1508 182.16 61.1221 181.99 61.13C181.44 61.13 180.28 61.13 179.5 61.13L173.06 61.09ZM177.25 60.27C177.994 60.29 178.738 60.27 179.48 60.21C179.56 60.21 179.59 60.16 179.54 60.04C178.45 57.22 177.08 53.12 175.67 49.43C175.67 49.33 175.59 49.33 175.55 49.43L172.27 59.09C172.129 59.4133 172.015 59.7478 171.93 60.09C171.93 60.17 171.99 60.17 172.05 60.18C172.715 60.2344 173.383 60.2545 174.05 60.24L177.25 60.27Z" fill="#F6F7F8"/>
<path d="M184.42 53.9299C184.408 52.9435 184.594 51.9646 184.967 51.0514C185.34 50.1382 185.893 49.3092 186.592 48.6135C187.291 47.9178 188.123 47.3696 189.039 47.0014C189.954 46.6331 190.934 46.4524 191.92 46.4699C196.21 46.4699 199.42 49.1799 199.42 53.6199C199.462 54.6395 199.296 55.6569 198.931 56.6099C198.566 57.5628 198.01 58.4311 197.298 59.1615C196.585 59.8919 195.731 60.469 194.787 60.8573C193.843 61.2457 192.83 61.4371 191.81 61.4199C186.59 61.4199 184.42 57.3599 184.42 53.9299ZM197.59 54.1499C197.59 49.5799 194.8 47.1499 191.79 47.1499C188.61 47.1499 186.23 49.2499 186.23 53.4199C186.23 57.8599 188.89 60.7199 192.33 60.7199C194 60.6899 197.59 59.6999 197.59 54.1499Z" fill="#F6F7F8"/>
<path d="M218.21 58.6899C218.28 59.3799 218.42 60.4399 219.21 60.6899C219.592 60.8077 219.99 60.865 220.39 60.8599C220.48 60.8599 220.6 60.8599 220.6 60.9799C220.6 61.0999 220.54 61.1299 220.31 61.1299C219.89 61.1299 217.72 61.0699 217.02 61.0099C216.58 61.0099 216.48 60.9199 216.48 60.8199C216.48 60.7199 216.48 60.7299 216.62 60.6899C216.76 60.6499 216.73 60.3499 216.69 59.9999L215.78 50.0599L211.05 60.0599C210.65 60.8999 210.59 61.0599 210.42 61.0599C210.25 61.0599 210.19 60.8699 209.83 60.1799C209.33 59.2499 207.7 55.9499 207.6 55.7599C207.43 55.4199 205.24 50.7099 205.03 50.1999L204.25 59.1999C204.25 59.5099 204.25 59.7799 204.25 60.0999C204.25 60.5799 204.48 60.7299 204.76 60.7899C204.987 60.8387 205.218 60.8621 205.45 60.8599C205.56 60.8599 205.64 60.8599 205.64 60.9599C205.64 61.0599 205.54 61.1299 205.35 61.1299C204.65 61.1299 203.68 61.0699 203.52 61.0699C203.36 61.0699 202.44 61.1299 201.92 61.1299C201.73 61.1299 201.6 61.1299 201.6 60.9799C201.6 60.8299 201.69 60.8599 201.79 60.8599C201.982 60.8633 202.173 60.8431 202.36 60.7999C202.99 60.6899 203.03 59.9999 203.12 59.2199L204.5 46.8299C204.5 46.6199 204.59 46.4499 204.7 46.4499C204.81 46.4499 204.9 46.5299 204.99 46.7399L210.82 58.7399L216.43 46.7399C216.5 46.5699 216.58 46.4299 216.71 46.4299C216.84 46.4299 216.9 46.5899 216.94 46.9499L218.21 58.6899Z" fill="#F6F7F8"/>
<path d="M1 64.82C7.57 64.53 15 64.6 21.64 64.55C79.91 64.55 149.11 64.55 207.35 64.55C211.94 64.55 216.53 64.55 221.11 64.82C216.53 65.1 211.94 65.04 207.35 65.09C149.12 65.09 79.9 65.09 21.64 65.09C15 65 7.58 65.1 1 64.82Z" fill="#F6F7F8"/>
<path d="M1 79.1799C7.57 78.8999 15 78.9699 21.64 78.9199C79.91 78.9199 149.11 78.9199 207.35 78.9199C211.94 78.9199 216.53 78.9199 221.11 79.1899C216.53 79.4799 211.94 79.4199 207.35 79.4599C149.12 79.4599 79.9 79.4599 21.64 79.4599C15.03 79.4599 7.58 79.4599 1 79.1899L1 79.1799Z" fill="#F6F7F8"/>
<path d="M86.85 72.11C86.7888 71.1053 87.1266 70.117 87.79 69.36C88.1016 69.0313 88.4792 68.7723 88.898 68.5999C89.3168 68.4276 89.7673 68.3458 90.22 68.36C90.8377 68.3496 91.4464 68.5087 91.98 68.82C92.4959 69.1268 92.9099 69.579 93.17 70.12C93.4548 70.7053 93.5986 71.3491 93.59 72C93.6007 72.6661 93.4497 73.325 93.15 73.92C92.8859 74.4629 92.4596 74.9102 91.93 75.2C91.4068 75.4899 90.8182 75.6414 90.22 75.64C89.5932 75.6512 88.9761 75.4848 88.44 75.16C87.9233 74.8496 87.5094 74.394 87.25 73.85C86.9873 73.3075 86.8505 72.7127 86.85 72.11ZM87.85 72.11C87.8131 72.839 88.0564 73.5545 88.53 74.11C88.753 74.3426 89.0209 74.5277 89.3173 74.6541C89.6137 74.7806 89.9327 74.8457 90.255 74.8457C90.5773 74.8457 90.8962 74.7806 91.1927 74.6541C91.4891 74.5277 91.7569 74.3426 91.98 74.11C92.4653 73.5218 92.7084 72.771 92.66 72.01C92.6743 71.4948 92.5753 70.9827 92.37 70.51C92.1955 70.0976 91.8989 69.7486 91.52 69.51C91.1449 69.2773 90.7114 69.1559 90.27 69.16C89.9542 69.1552 89.6406 69.2129 89.3472 69.3296C89.0538 69.4462 88.7862 69.6197 88.56 69.84C88.2847 70.1479 88.0761 70.5094 87.947 70.9017C87.818 71.294 87.7713 71.7088 87.81 72.12L87.85 72.11Z" fill="white"/>
<path d="M100.72 75.54V69.32H98.39V68.49H104V69.32H101.67V75.54H100.72Z" fill="white"/>
<path d="M109.09 75.54V68.49H114.19V69.32H110V71.48H113.9V72.31H110V74.71H114.33V75.54H109.09Z" fill="white"/>
<path d="M120.29 68.49H124.7V75.54H123.77V69.32H121.22V73C121.23 73.5418 121.197 74.0836 121.12 74.62C121.067 74.9283 120.912 75.21 120.68 75.42C120.445 75.6171 120.146 75.7204 119.84 75.71C119.589 75.7031 119.34 75.6627 119.1 75.59L119.26 74.77C119.383 74.824 119.516 74.8546 119.65 74.86C119.744 74.8643 119.837 74.8445 119.921 74.8025C120.005 74.7605 120.077 74.6977 120.13 74.62C120.269 74.264 120.324 73.8807 120.29 73.5V68.49Z" fill="white"/>
<path d="M130.4 68.49H131.33V71.49H133C133.58 71.4556 134.16 71.5477 134.7 71.76C135.029 71.9201 135.296 72.1836 135.46 72.51C135.618 72.8192 135.697 73.1628 135.69 73.51C135.698 74.0398 135.501 74.5523 135.14 74.94C134.853 75.1775 134.52 75.3549 134.163 75.4614C133.806 75.5679 133.431 75.6014 133.06 75.56H130.4V68.49ZM131.33 74.75H133C133.238 74.781 133.48 74.7643 133.712 74.7008C133.944 74.6372 134.161 74.5282 134.35 74.38C134.562 74.1326 134.676 73.8158 134.67 73.49C134.675 73.2312 134.594 72.9779 134.44 72.77C134.291 72.5721 134.073 72.4367 133.83 72.39C133.404 72.3158 132.972 72.2857 132.54 72.3H131.29L131.33 74.75Z" fill="white"/>
<path d="M109.72 35.52C109.8 35.81 109.86 36.09 109.91 36.38V41.52C109.85 41.81 109.79 42.09 109.72 42.38C109.64 42.09 109.58 41.81 109.52 41.52V36.38C109.58 36.09 109.63 35.81 109.72 35.52Z" fill="#F6F7F8"/>
</svg>
